<svg width="1500" height="23" viewBox="0 0 1500 23" fill="none" xmlns="http://www.w3.org/2000/svg">
<line y1="11.5" x2="102" y2="11.5" stroke="black" stroke-width="3"/>
<line x1="261" y1="11.5" x2="505" y2="11.5" stroke="black" stroke-width="3"/>
<line x1="663" y1="11.5" x2="911" y2="11.5" stroke="black" stroke-width="3"/>
<line x1="1069" y1="11.5" x2="1214" y2="11.5" stroke="black" stroke-width="3"/>
<path d="M1499.06 12.5607C1499.65 11.9749 1499.65 11.0251 1499.06 10.4393L1489.51 0.893398C1488.93 0.307612 1487.98 0.307612 1487.39 0.893398C1486.81 1.47918 1486.81 2.42893 1487.39 3.01472L1495.88 11.5L1487.39 19.9853C1486.81 20.5711 1486.81 21.5208 1487.39 22.1066C1487.98 22.6924 1488.93 22.6924 1489.51 22.1066L1499.06 12.5607ZM1372 13H1498V10H1372V13Z" fill="black"/>
</svg>
