<svg width="1487" height="15" viewBox="0 0 1487 15" fill="none" xmlns="http://www.w3.org/2000/svg">
<mask id="path-1-inside-1_1_39" fill="white">
<path fill-rule="evenodd" clip-rule="evenodd" d="M1253.02 6.36396C1253.01 6.74114 1253 7.11985 1253 7.5C1253 7.78883 1253 8.07683 1253.01 8.36396H1028.99C1029 8.07683 1029 7.78883 1029 7.5C1029 7.11985 1028.99 6.74114 1028.98 6.36396H1253.02ZM1412.98 6.36396C1412.99 6.74114 1413 7.11985 1413 7.5C1413 7.78883 1413 8.07683 1412.99 8.36396H1483.59L1478.93 13.0208C1478.54 13.4113 1478.54 14.0445 1478.93 14.435C1479.32 14.8256 1479.95 14.8256 1480.34 14.435L1486.71 8.07107C1487.1 7.68054 1487.1 7.04738 1486.71 6.65685L1480.34 0.292893C1479.95 -0.097631 1479.32 -0.097631 1478.93 0.292893C1478.54 0.683419 1478.54 1.31658 1478.93 1.70711L1483.59 6.36396H1412.98ZM869 7.5C869 7.11985 869.006 6.74114 869.018 6.36396H644.982C644.994 6.74114 645 7.11985 645 7.5C645 7.78883 644.996 8.07683 644.989 8.36396H869.011C869.004 8.07683 869 7.78883 869 7.5ZM485.018 6.36396C485.006 6.74114 485 7.11985 485 7.5C485 7.78883 485.004 8.07683 485.011 8.36396H260.989C260.996 8.07683 261 7.78883 261 7.5C261 7.11985 260.994 6.74114 260.982 6.36396H485.018ZM101 7.5C101 7.11985 101.006 6.74114 101.018 6.36396H-1V8.36396H101.011C101.004 8.07683 101 7.78883 101 7.5Z"/>
</mask>
<path fill-rule="evenodd" clip-rule="evenodd" d="M1253.02 6.36396C1253.01 6.74114 1253 7.11985 1253 7.5C1253 7.78883 1253 8.07683 1253.01 8.36396H1028.99C1029 8.07683 1029 7.78883 1029 7.5C1029 7.11985 1028.99 6.74114 1028.98 6.36396H1253.02ZM1412.98 6.36396C1412.99 6.74114 1413 7.11985 1413 7.5C1413 7.78883 1413 8.07683 1412.99 8.36396H1483.59L1478.93 13.0208C1478.54 13.4113 1478.54 14.0445 1478.93 14.435C1479.32 14.8256 1479.95 14.8256 1480.34 14.435L1486.71 8.07107C1487.1 7.68054 1487.1 7.04738 1486.71 6.65685L1480.34 0.292893C1479.95 -0.097631 1479.32 -0.097631 1478.93 0.292893C1478.54 0.683419 1478.54 1.31658 1478.93 1.70711L1483.59 6.36396H1412.98ZM869 7.5C869 7.11985 869.006 6.74114 869.018 6.36396H644.982C644.994 6.74114 645 7.11985 645 7.5C645 7.78883 644.996 8.07683 644.989 8.36396H869.011C869.004 8.07683 869 7.78883 869 7.5ZM485.018 6.36396C485.006 6.74114 485 7.11985 485 7.5C485 7.78883 485.004 8.07683 485.011 8.36396H260.989C260.996 8.07683 261 7.78883 261 7.5C261 7.11985 260.994 6.74114 260.982 6.36396H485.018ZM101 7.5C101 7.11985 101.006 6.74114 101.018 6.36396H-1V8.36396H101.011C101.004 8.07683 101 7.78883 101 7.5Z" fill="white" fill-opacity="0.8"/>
<path d="M1253.02 6.36396L1255.02 6.42865L1255.08 4.36396H1253.02V6.36396ZM1253.01 8.36396V10.364H1255.06L1255.01 8.31466L1253.01 8.36396ZM1028.99 8.36396L1026.99 8.31466L1026.94 10.364H1028.99V8.36396ZM1028.98 6.36396V4.36396H1026.92L1026.98 6.42865L1028.98 6.36396ZM1412.98 6.36396V4.36396H1410.92L1410.98 6.42865L1412.98 6.36396ZM1412.99 8.36396L1410.99 8.31466L1410.94 10.364H1412.99V8.36396ZM1483.59 8.36396L1485 9.77817L1488.41 6.36396H1483.59V8.36396ZM1478.93 13.0208L1477.51 11.6066L1477.51 11.6066L1478.93 13.0208ZM1478.93 14.435L1480.34 13.0209L1480.34 13.0208L1478.93 14.435ZM1480.34 14.435L1478.93 13.0208L1478.93 13.0209L1480.34 14.435ZM1486.71 8.07107L1488.12 9.48529L1488.12 9.48524L1486.71 8.07107ZM1486.71 6.65685L1488.12 5.24268L1488.12 5.24263L1486.71 6.65685ZM1480.34 0.292893L1478.93 1.70707L1478.93 1.70711L1480.34 0.292893ZM1478.93 0.292893L1477.51 -1.12128L1477.51 -1.12128L1478.93 0.292893ZM1478.93 1.70711L1477.51 3.12128L1477.51 3.12132L1478.93 1.70711ZM1483.59 6.36396V8.36396H1488.41L1485 4.94975L1483.59 6.36396ZM869.018 6.36396L871.017 6.42865L871.084 4.36396H869.018V6.36396ZM644.982 6.36396V4.36396H642.916L642.983 6.42865L644.982 6.36396ZM644.989 8.36396L642.99 8.31466L642.939 10.364H644.989V8.36396ZM869.011 8.36396V10.364H871.061L871.01 8.31466L869.011 8.36396ZM485.018 6.36396L487.017 6.42865L487.084 4.36396H485.018V6.36396ZM485.011 8.36396V10.364H487.06L487.01 8.31487L485.011 8.36396ZM260.989 8.36396L258.99 8.31487L258.94 10.364H260.989V8.36396ZM260.982 6.36396V4.36396H258.916L258.983 6.42865L260.982 6.36396ZM101.018 6.36396L103.017 6.42861L103.084 4.36396H101.018V6.36396ZM-1 6.36396V4.36396H-3V6.36396H-1ZM-1 8.36396H-3V10.364H-1V8.36396ZM101.011 8.36396V10.364H103.06L103.01 8.31482L101.011 8.36396ZM1255 7.5C1255 7.14126 1255.01 6.78412 1255.02 6.42865L1251.02 6.29927C1251.01 6.69817 1251 7.09845 1251 7.5H1255ZM1255.01 8.31466C1255 8.04405 1255 7.77249 1255 7.5H1251C1251 7.80517 1251 8.10961 1251.01 8.41326L1255.01 8.31466ZM1028.99 10.364H1253.01V6.36396H1028.99V10.364ZM1027 7.5C1027 7.77249 1027 8.04405 1026.99 8.31466L1030.99 8.41326C1031 8.10961 1031 7.80517 1031 7.5H1027ZM1026.98 6.42865C1026.99 6.78412 1027 7.14126 1027 7.5H1031C1031 7.09844 1030.99 6.69816 1030.98 6.29927L1026.98 6.42865ZM1253.02 4.36396H1028.98V8.36396H1253.02V4.36396ZM1410.98 6.42865C1410.99 6.78412 1411 7.14126 1411 7.5H1415C1415 7.09845 1414.99 6.69817 1414.98 6.29927L1410.98 6.42865ZM1411 7.5C1411 7.77249 1411 8.04405 1410.99 8.31466L1414.99 8.41326C1415 8.10961 1415 7.80517 1415 7.5H1411ZM1412.99 10.364H1483.59V6.36396H1412.99V10.364ZM1482.17 6.94975L1477.51 11.6066L1480.34 14.435L1485 9.77817L1482.17 6.94975ZM1477.51 11.6066C1476.34 12.7782 1476.34 14.6776 1477.51 15.8492L1480.34 13.0208C1480.73 13.4114 1480.73 14.0445 1480.34 14.435L1477.51 11.6066ZM1477.51 15.8492C1478.69 17.0208 1480.59 17.0208 1481.76 15.8492L1478.93 13.0209C1479.32 12.6303 1479.95 12.6303 1480.34 13.0209L1477.51 15.8492ZM1481.76 15.8492L1488.12 9.48529L1485.29 6.65685L1478.93 13.0208L1481.76 15.8492ZM1488.12 9.48524C1489.29 8.31368 1489.29 6.41425 1488.12 5.24268L1485.29 8.07103C1484.9 7.68051 1484.9 7.04741 1485.29 6.65689L1488.12 9.48524ZM1488.12 5.24263L1481.76 -1.12133L1478.93 1.70711L1485.29 8.07107L1488.12 5.24263ZM1481.76 -1.12128C1480.59 -2.29291 1478.69 -2.29291 1477.51 -1.12128L1480.34 1.70707C1479.95 2.09764 1479.32 2.09764 1478.93 1.70707L1481.76 -1.12128ZM1477.51 -1.12128C1476.34 0.0502857 1476.34 1.94972 1477.51 3.12128L1480.34 0.292936C1480.73 0.683449 1480.73 1.31655 1480.34 1.70707L1477.51 -1.12128ZM1477.51 3.12132L1482.17 7.77818L1485 4.94975L1480.34 0.292893L1477.51 3.12132ZM1483.59 4.36396H1412.98V8.36396H1483.59V4.36396ZM867.019 6.29927C867.007 6.69795 867 7.09823 867 7.5H871C871 7.14147 871.006 6.78433 871.017 6.42865L867.019 6.29927ZM644.982 8.36396H869.018V4.36396H644.982V8.36396ZM647 7.5C647 7.09823 646.993 6.69795 646.981 6.29927L642.983 6.42865C642.994 6.78433 643 7.14148 643 7.5H647ZM646.989 8.41326C646.996 8.10961 647 7.80517 647 7.5H643C643 7.77249 642.997 8.04405 642.99 8.31466L646.989 8.41326ZM869.011 6.36396H644.989V10.364H869.011V6.36396ZM867 7.5C867 7.80517 867.004 8.10961 867.011 8.41326L871.01 8.31466C871.003 8.04405 871 7.77249 871 7.5H867ZM487 7.5C487 7.14137 487.006 6.78423 487.017 6.42865L483.019 6.29927C483.006 6.69806 483 7.09834 483 7.5H487ZM487.01 8.31487C487.003 8.04398 487 7.77235 487 7.5H483C483 7.80531 483.004 8.10968 483.011 8.41305L487.01 8.31487ZM260.989 10.364H485.011V6.36396H260.989V10.364ZM259 7.5C259 7.77235 258.997 8.04398 258.99 8.31487L262.989 8.41305C262.996 8.10968 263 7.80531 263 7.5H259ZM258.983 6.42865C258.994 6.78423 259 7.14137 259 7.5H263C263 7.09834 262.994 6.69806 262.981 6.29927L258.983 6.42865ZM485.018 4.36396H260.982V8.36396H485.018V4.36396ZM99.0194 6.29931C99.0065 6.69802 99 7.09828 99 7.5H103C103 7.14142 103.006 6.78427 103.017 6.42861L99.0194 6.29931ZM-1 8.36396H101.018V4.36396H-1V8.36396ZM1 8.36396V6.36396H-3V8.36396H1ZM101.011 6.36396H-1V10.364H101.011V6.36396ZM99 7.5C99 7.80521 99.0037 8.10959 99.0112 8.4131L103.01 8.31482C103.003 8.04407 103 7.77245 103 7.5H99Z" fill="black" mask="url(#path-1-inside-1_1_39)"/>
</svg>
