<svg width="1500" height="24" viewBox="0 0 1500 24" fill="none" xmlns="http://www.w3.org/2000/svg">
<path fill-rule="evenodd" clip-rule="evenodd" d="M1206.08 10.5H1039.99C1040 10.9989 1040 11.4989 1040 12C1040 12.5011 1040 13.0011 1039.99 13.5H1206.26C1206.18 12.505 1206.12 11.5049 1206.08 10.5ZM1365.74 13.5H1494.38L1487.39 20.4853C1486.81 21.0711 1486.81 22.0208 1487.39 22.6066C1487.98 23.1924 1488.93 23.1924 1489.51 22.6066L1499.06 13.0606C1499.65 12.4749 1499.65 11.5251 1499.06 10.9393L1489.51 1.39338C1488.93 0.807594 1487.98 0.807594 1487.39 1.39338C1486.81 1.97917 1486.81 2.92891 1487.39 3.5147L1494.38 10.5H1365.92C1365.88 11.5049 1365.82 12.505 1365.74 13.5ZM647.986 13.5H880.014C880.005 13.0011 880 12.5011 880 12C880 11.4989 880.005 10.9989 880.014 10.5H647.876C647.931 11.4952 647.968 12.4953 647.986 13.5ZM488.124 10.5H271.876C271.931 11.4952 271.968 12.4953 271.986 13.5H488.014C488.032 12.4953 488.069 11.4952 488.124 10.5ZM0 10.5H112.124C112.069 11.4952 112.032 12.4953 112.014 13.5H0V10.5Z" fill="black"/>
</svg>
