<svg width="447" height="463" viewBox="0 0 447 463" fill="none" xmlns="http://www.w3.org/2000/svg">
<path d="M223.5 463C346.936 463 447 362.936 447 239.5C447 116.064 346.936 16 223.5 16C100.064 16 0 116.064 0 239.5C0 362.936 100.064 463 223.5 463Z" fill="#686161"/>
<path d="M223.5 447C346.936 447 447 346.936 447 223.5C447 100.064 346.936 0 223.5 0C100.064 0 0 100.064 0 223.5C0 346.936 100.064 447 223.5 447Z" fill="#FFF3D6"/>
<path d="M223.459 204.5C223.459 196.714 189.37 172.309 216.459 143.5C225.576 133.804 225.265 92.1221 223.459 82" stroke="black" stroke-width="3" stroke-linecap="round"/>
</svg>
