<svg width="99" height="220" viewBox="0 0 99 220" fill="none" xmlns="http://www.w3.org/2000/svg">
<path d="M44.5331 0C44.5331 0 104.533 121.5 97.533 169.5C90.5331 217.5 53.0251 228.088 24.0331 212C1.72931 199.623 -3.49108 177.845 2.03314 150.5C22.0331 51.5001 44.5331 0 44.5331 0Z" fill="#FFDE67"/>
<path d="M42.1396 54.2526C42.1396 54.2526 90.7443 143.185 87.1209 179.324C83.4975 215.462 55.9622 224.61 33.8796 213.523C16.8912 204.994 12.2932 188.872 15.4997 168.234C27.1084 93.5165 42.1396 54.2526 42.1396 54.2526Z" fill="#F8A832"/>
<path d="M42.9122 103.014C42.9122 103.014 80.8738 164.954 78.3204 190.431C75.767 215.907 54.6462 222.706 37.5886 215.194C24.4661 209.416 20.8251 198.132 23.158 183.568C31.6042 130.84 42.9122 103.014 42.9122 103.014Z" fill="#F85532"/>
</svg>
