<svg width="6112" height="644" viewBox="0 0 6112 644" fill="none" xmlns="http://www.w3.org/2000/svg">
<ellipse cx="132.858" cy="246.421" rx="99" ry="51" transform="rotate(32.7205 132.858 246.421)" fill="#FFAFC7"/>
<ellipse cx="233.57" cy="200.293" rx="99" ry="51" transform="rotate(90.3305 233.57 200.293)" fill="#FFAFC7"/>
<ellipse cx="102.381" cy="330.921" rx="99" ry="51" transform="rotate(-4.08396 102.381 330.921)" fill="#FFAFC7"/>
<ellipse cx="164.52" cy="420.724" rx="99" ry="51" transform="rotate(-50.2435 164.52 420.724)" fill="#FFAFC7"/>
<ellipse cx="267.122" cy="440.473" rx="99" ry="51" transform="rotate(-94.2048 267.122 440.473)" fill="#FFAFC7"/>
<ellipse cx="356.364" cy="372.503" rx="99" ry="51" transform="rotate(-152.897 356.364 372.503)" fill="#FFAFC7"/>
<ellipse cx="344.734" cy="259.297" rx="99" ry="51" transform="rotate(158.841 344.734 259.297)" fill="#FFAFC7"/>
<circle cx="233.5" cy="324.5" r="64.5" fill="#FFDA58" fill-opacity="0.7"/>
<ellipse cx="4969.56" cy="437.906" rx="99" ry="51" transform="rotate(-117.28 4969.56 437.906)" fill="#FFAFC7"/>
<ellipse cx="4859.28" cy="427.498" rx="99" ry="51" transform="rotate(-59.6695 4859.28 427.498)" fill="#FFAFC7"/>
<ellipse cx="5038.21" cy="379.965" rx="99" ry="51" transform="rotate(-154.084 5038.21 379.965)" fill="#FFAFC7"/>
<ellipse cx="5029.29" cy="271.124" rx="99" ry="51" transform="rotate(159.757 5029.29 271.124)" fill="#FFAFC7"/>
<ellipse cx="4950.31" cy="202.72" rx="99" ry="51" transform="rotate(115.795 4950.31 202.72)" fill="#FFAFC7"/>
<ellipse cx="4839.04" cy="216.963" rx="99" ry="51" transform="rotate(57.1026 4839.04 216.963)" fill="#FFAFC7"/>
<ellipse cx="4792.51" cy="320.817" rx="99" ry="51" transform="rotate(8.84087 4792.51 320.817)" fill="#FFAFC7"/>
<circle cx="4921.44" cy="319.967" r="64.5" transform="rotate(-150 4921.44 319.967)" fill="#FFDA58" fill-opacity="0.7"/>
<ellipse cx="5468.9" cy="406.041" rx="99" ry="51" transform="rotate(-142.28 5468.9 406.041)" fill="#FFAFC7"/>
<ellipse cx="5364.55" cy="443.216" rx="99" ry="51" transform="rotate(-84.6695 5364.55 443.216)" fill="#FFAFC7"/>
<ellipse cx="5506.63" cy="324.518" rx="99" ry="51" transform="rotate(-179.084 5506.63 324.518)" fill="#FFAFC7"/>
<ellipse cx="5452.55" cy="229.641" rx="99" ry="51" transform="rotate(134.757 5452.55 229.641)" fill="#FFAFC7"/>
<ellipse cx="5352.06" cy="201.025" rx="99" ry="51" transform="rotate(90.7952 5352.06 201.025)" fill="#FFAFC7"/>
<ellipse cx="5257.23" cy="260.959" rx="99" ry="51" transform="rotate(32.1026 5257.23 260.959)" fill="#FFAFC7"/>
<ellipse cx="5258.95" cy="374.748" rx="99" ry="51" transform="rotate(-16.1591 5258.95 374.748)" fill="#FFAFC7"/>
<circle cx="5375.45" cy="319.487" r="64.5" transform="rotate(-175 5375.45 319.487)" fill="#FFDA58" fill-opacity="0.7"/>
<ellipse cx="5955.45" cy="378.838" rx="99" ry="51" transform="rotate(-157.28 5955.45 378.838)" fill="#FFAFC7"/>
<ellipse cx="5864.28" cy="441.754" rx="99" ry="51" transform="rotate(-99.6695 5864.28 441.754)" fill="#FFAFC7"/>
<ellipse cx="5970.8" cy="290.329" rx="99" ry="51" transform="rotate(165.916 5970.8 290.329)" fill="#FFAFC7"/>
<ellipse cx="5894.01" cy="212.681" rx="99" ry="51" transform="rotate(119.757 5894.01 212.681)" fill="#FFAFC7"/>
<ellipse cx="5789.53" cy="211.048" rx="99" ry="51" transform="rotate(75.7952 5789.53 211.048)" fill="#FFAFC7"/>
<ellipse cx="5713.45" cy="293.483" rx="99" ry="51" transform="rotate(17.1026 5713.45 293.483)" fill="#FFAFC7"/>
<ellipse cx="5744.56" cy="402.95" rx="99" ry="51" transform="rotate(-31.1591 5744.56 402.95)" fill="#FFAFC7"/>
<circle cx="5842.78" cy="319.421" r="64.5" transform="rotate(170 5842.78 319.421)" fill="#FFDA58" fill-opacity="0.7"/>
<ellipse cx="1037.61" cy="307.046" rx="99" ry="51" transform="rotate(2.72045 1037.61 307.046)" fill="#FFAFC7"/>
<ellipse cx="1101.77" cy="216.741" rx="99" ry="51" transform="rotate(60.3305 1101.77 216.741)" fill="#FFAFC7"/>
<ellipse cx="1053.47" cy="395.464" rx="99" ry="51" transform="rotate(-34.084 1053.47 395.464)" fill="#FFAFC7"/>
<ellipse cx="1152.19" cy="442.166" rx="99" ry="51" transform="rotate(-80.2435 1152.19 442.166)" fill="#FFAFC7"/>
<ellipse cx="1250.92" cy="407.968" rx="99" ry="51" transform="rotate(-124.205 1250.92 407.968)" fill="#FFAFC7"/>
<ellipse cx="1294.22" cy="304.483" rx="99" ry="51" transform="rotate(177.103 1294.22 304.483)" fill="#FFAFC7"/>
<ellipse cx="1227.54" cy="212.258" rx="99" ry="51" transform="rotate(128.841 1227.54 212.258)" fill="#FFAFC7"/>
<circle cx="1163.81" cy="324.343" r="64.5" transform="rotate(-30 1163.81 324.343)" fill="#FFDA58" fill-opacity="0.7"/>
<ellipse cx="1506.02" cy="339.971" rx="99" ry="51" transform="rotate(-12.2795 1506.02 339.971)" fill="#FFAFC7"/>
<ellipse cx="1544.62" cy="236.14" rx="99" ry="51" transform="rotate(45.3305 1544.62 236.14)" fill="#FFAFC7"/>
<ellipse cx="1544.22" cy="421.273" rx="99" ry="51" transform="rotate(-49.084 1544.22 421.273)" fill="#FFAFC7"/>
<ellipse cx="1651.66" cy="440.834" rx="99" ry="51" transform="rotate(-95.2435 1651.66 440.834)" fill="#FFAFC7"/>
<ellipse cx="1738.17" cy="382.248" rx="99" ry="51" transform="rotate(-139.205 1738.17 382.248)" fill="#FFAFC7"/>
<ellipse cx="1753.21" cy="271.082" rx="99" ry="51" transform="rotate(162.103 1753.21 271.082)" fill="#FFAFC7"/>
<ellipse cx="1664.94" cy="199.257" rx="99" ry="51" transform="rotate(113.841 1664.94 199.257)" fill="#FFAFC7"/>
<circle cx="1632.39" cy="324.017" r="64.5" transform="rotate(-45 1632.39 324.017)" fill="#FFDA58" fill-opacity="0.7"/>
<ellipse cx="1982.93" cy="371.67" rx="99" ry="51" transform="rotate(-27.2795 1982.93 371.67)" fill="#FFAFC7"/>
<ellipse cx="1993.34" cy="261.387" rx="99" ry="51" transform="rotate(30.3305 1993.34 261.387)" fill="#FFAFC7"/>
<ellipse cx="2040.87" cy="440.315" rx="99" ry="51" transform="rotate(-64.084 2040.87 440.315)" fill="#FFAFC7"/>
<ellipse cx="2149.71" cy="431.402" rx="99" ry="51" transform="rotate(-110.243 2149.71 431.402)" fill="#FFAFC7"/>
<ellipse cx="2218.12" cy="352.421" rx="99" ry="51" transform="rotate(-154.205 2218.12 352.421)" fill="#FFAFC7"/>
<ellipse cx="2203.87" cy="241.15" rx="99" ry="51" transform="rotate(147.103 2203.87 241.15)" fill="#FFAFC7"/>
<ellipse cx="2100.02" cy="194.618" rx="99" ry="51" transform="rotate(98.8409 2100.02 194.618)" fill="#FFAFC7"/>
<circle cx="2100.87" cy="323.552" r="64.5" transform="rotate(-60 2100.87 323.552)" fill="#FFDA58" fill-opacity="0.7"/>
<ellipse cx="2467.74" cy="399.983" rx="99" ry="51" transform="rotate(-42.2795 2467.74 399.983)" fill="#FFAFC7"/>
<ellipse cx="2449.25" cy="290.764" rx="99" ry="51" transform="rotate(15.3305 2449.25 290.764)" fill="#FFAFC7"/>
<ellipse cx="2541.48" cy="451.292" rx="99" ry="51" transform="rotate(-79.084 2541.48 451.292)" fill="#FFAFC7"/>
<ellipse cx="2644.3" cy="414.512" rx="99" ry="51" transform="rotate(-125.243 2644.3 414.512)" fill="#FFAFC7"/>
<ellipse cx="2689.93" cy="320.519" rx="99" ry="51" transform="rotate(-169.205 2689.93 320.519)" fill="#FFAFC7"/>
<ellipse cx="2647.38" cy="216.725" rx="99" ry="51" transform="rotate(132.103 2647.38 216.725)" fill="#FFAFC7"/>
<ellipse cx="2535.02" cy="198.658" rx="99" ry="51" transform="rotate(83.8409 2535.02 198.658)" fill="#FFAFC7"/>
<circle cx="2569.21" cy="322.979" r="64.5" transform="rotate(-75 2569.21 322.979)" fill="#FFDA58" fill-opacity="0.7"/>
<ellipse cx="2959.31" cy="422.979" rx="99" ry="51" transform="rotate(-57.2795 2959.31 422.979)" fill="#FFAFC7"/>
<ellipse cx="2913.18" cy="322.267" rx="99" ry="51" transform="rotate(0.33052 2913.18 322.267)" fill="#FFAFC7"/>
<ellipse cx="3043.81" cy="453.456" rx="99" ry="51" transform="rotate(-94.084 3043.81 453.456)" fill="#FFAFC7"/>
<ellipse cx="3133.61" cy="391.317" rx="99" ry="51" transform="rotate(-140.243 3133.61 391.317)" fill="#FFAFC7"/>
<ellipse cx="3153.36" cy="288.715" rx="99" ry="51" transform="rotate(175.795 3153.36 288.715)" fill="#FFAFC7"/>
<ellipse cx="3085.39" cy="199.473" rx="99" ry="51" transform="rotate(117.103 3085.39 199.473)" fill="#FFAFC7"/>
<ellipse cx="2972.19" cy="211.102" rx="99" ry="51" transform="rotate(68.8409 2972.19 211.102)" fill="#FFAFC7"/>
<circle cx="3037.39" cy="322.337" r="64.5" transform="rotate(-90 3037.39 322.337)" fill="#FFDA58" fill-opacity="0.7"/>
<ellipse cx="3456.03" cy="439.091" rx="99" ry="51" transform="rotate(-72.2795 3456.03 439.091)" fill="#FFAFC7"/>
<ellipse cx="3385.41" cy="353.75" rx="99" ry="51" transform="rotate(-14.6695 3385.41 353.75)" fill="#FFAFC7"/>
<ellipse cx="3545.54" cy="446.66" rx="99" ry="51" transform="rotate(-109.084 3545.54 446.66)" fill="#FFAFC7"/>
<ellipse cx="3616.2" cy="363.395" rx="99" ry="51" transform="rotate(-155.243 3616.2 363.395)" fill="#FFAFC7"/>
<ellipse cx="3608.72" cy="259.178" rx="99" ry="51" transform="rotate(160.795 3608.72 259.178)" fill="#FFAFC7"/>
<ellipse cx="3519.97" cy="190.569" rx="99" ry="51" transform="rotate(102.103 3519.97 190.569)" fill="#FFAFC7"/>
<ellipse cx="3413.63" cy="231.102" rx="99" ry="51" transform="rotate(53.8409 3413.63 231.102)" fill="#FFAFC7"/>
<circle cx="3505.4" cy="321.67" r="64.5" transform="rotate(-105 3505.4 321.67)" fill="#FFDA58" fill-opacity="0.7"/>
<ellipse cx="3955.94" cy="447.223" rx="99" ry="51" transform="rotate(-87.2796 3955.94 447.223)" fill="#FFAFC7"/>
<ellipse cx="3865.63" cy="383.068" rx="99" ry="51" transform="rotate(-29.6695 3865.63 383.068)" fill="#FFAFC7"/>
<ellipse cx="4044.35" cy="431.367" rx="99" ry="51" transform="rotate(-124.084 4044.35 431.367)" fill="#FFAFC7"/>
<ellipse cx="4091.06" cy="332.651" rx="99" ry="51" transform="rotate(-170.243 4091.06 332.651)" fill="#FFAFC7"/>
<ellipse cx="4056.86" cy="233.921" rx="99" ry="51" transform="rotate(145.795 4056.86 233.921)" fill="#FFAFC7"/>
<ellipse cx="3953.37" cy="190.62" rx="99" ry="51" transform="rotate(87.1026 3953.37 190.62)" fill="#FFAFC7"/>
<ellipse cx="3861.15" cy="257.294" rx="99" ry="51" transform="rotate(38.8409 3861.15 257.294)" fill="#FFAFC7"/>
<circle cx="3973.23" cy="321.025" r="64.5" transform="rotate(-120 3973.23 321.025)" fill="#FFDA58" fill-opacity="0.7"/>
<ellipse cx="4456.86" cy="446.818" rx="99" ry="51" transform="rotate(-102.28 4456.86 446.818)" fill="#FFAFC7"/>
<ellipse cx="4353.03" cy="408.222" rx="99" ry="51" transform="rotate(-44.6695 4353.03 408.222)" fill="#FFAFC7"/>
<ellipse cx="4538.16" cy="408.618" rx="99" ry="51" transform="rotate(-139.084 4538.16 408.618)" fill="#FFAFC7"/>
<ellipse cx="4557.72" cy="301.179" rx="99" ry="51" transform="rotate(174.757 4557.72 301.179)" fill="#FFAFC7"/>
<ellipse cx="4499.14" cy="214.664" rx="99" ry="51" transform="rotate(130.795 4499.14 214.664)" fill="#FFAFC7"/>
<ellipse cx="4387.97" cy="199.623" rx="99" ry="51" transform="rotate(72.1026 4387.97 199.623)" fill="#FFAFC7"/>
<ellipse cx="4316.15" cy="287.895" rx="99" ry="51" transform="rotate(23.8409 4316.15 287.895)" fill="#FFAFC7"/>
<circle cx="4440.91" cy="320.443" r="64.5" transform="rotate(-135 4440.91 320.443)" fill="#FFDA58" fill-opacity="0.7"/>
<ellipse cx="623.854" cy="222.853" rx="99" ry="51" transform="rotate(47.7205 623.854 222.853)" fill="#FFAFC7"/>
<ellipse cx="733.073" cy="204.363" rx="99" ry="51" transform="rotate(105.331 733.073 204.363)" fill="#FFAFC7"/>
<ellipse cx="572.545" cy="296.586" rx="99" ry="51" transform="rotate(10.916 572.545 296.586)" fill="#FFAFC7"/>
<ellipse cx="609.325" cy="399.412" rx="99" ry="51" transform="rotate(-35.2435 609.325 399.412)" fill="#FFAFC7"/>
<ellipse cx="703.318" cy="445.043" rx="99" ry="51" transform="rotate(-79.2048 703.318 445.043)" fill="#FFAFC7"/>
<ellipse cx="807.112" cy="402.486" rx="99" ry="51" transform="rotate(-137.897 807.112 402.486)" fill="#FFAFC7"/>
<ellipse cx="825.179" cy="290.128" rx="99" ry="51" transform="rotate(173.841 825.179 290.128)" fill="#FFAFC7"/>
<circle cx="700.858" cy="324.32" r="64.5" transform="rotate(15 700.858 324.32)" fill="#FFDA58" fill-opacity="0.7"/>
</svg>
