<svg width="160" height="69" viewBox="0 0 160 69" fill="none" xmlns="http://www.w3.org/2000/svg">
<rect x="1" y="1" width="158" height="67" rx="33.5" fill="white" fill-opacity="0.8" stroke="black" stroke-width="2"/>
<path d="M16.4219 46V44.1982L18.9707 43.5977V27.3965L16.4219 26.7959V25.1553L22.1201 24.9941H37.2666V26.7959L34.7178 27.3965V43.5977L37.2666 44.1982V46H28.7266V44.1982L31.5684 43.5977V27.3965H22.1201V43.5977L24.9766 44.1982V46H16.4219ZM39.6836 38.207C39.6836 35.6777 40.3916 33.6465 41.8076 32.1133C43.2236 30.5703 45.0645 29.7988 47.3301 29.7988C49.5469 29.7988 51.2754 30.5166 52.5156 31.9521C53.7559 33.3877 54.376 35.3213 54.376 37.7529C54.376 40.3018 53.6875 42.3623 52.3105 43.9346C50.9336 45.5068 49.1221 46.293 46.876 46.293C44.5908 46.293 42.8184 45.6094 41.5586 44.2422C40.3086 42.875 39.6836 40.8633 39.6836 38.207ZM42.833 38.0459C42.833 41.9521 44.2344 43.9053 47.0371 43.9053C48.502 43.9053 49.5664 43.4072 50.2305 42.4111C50.8945 41.4053 51.2266 39.9014 51.2266 37.8994C51.2266 34.1006 49.8789 32.2012 47.1836 32.2012C45.6992 32.2012 44.6006 32.6846 43.8877 33.6514C43.1846 34.6182 42.833 36.083 42.833 38.0459ZM56.793 38.207C56.793 36.6152 57.1006 35.1846 57.7158 33.915C58.3311 32.6357 59.2002 31.6299 60.3232 30.8975C61.4463 30.165 62.7207 29.7988 64.1465 29.7988C68.3457 29.7988 70.4453 32.1475 70.4453 36.8447C70.4453 37.0693 70.4307 37.3135 70.4014 37.5771C70.3818 37.8408 70.3574 38.0605 70.3281 38.2363L70.2988 38.5H59.9424C59.9424 40.1406 60.3428 41.4541 61.1436 42.4404C61.9443 43.417 62.9941 43.9053 64.293 43.9053C65.1816 43.9053 66.0459 43.7686 66.8857 43.4951C67.7256 43.2119 68.3457 42.9336 68.7461 42.6602L69.332 42.25L70.3867 43.8027C70.3086 43.8711 70.2012 43.9639 70.0645 44.0811C69.9277 44.1885 69.6299 44.3838 69.1709 44.667C68.7217 44.9502 68.2627 45.2041 67.7939 45.4287C67.3252 45.6436 66.7393 45.8389 66.0361 46.0146C65.3428 46.2002 64.6592 46.293 63.9854 46.293C61.6318 46.293 59.8447 45.5801 58.624 44.1543C57.4033 42.7188 56.793 40.7363 56.793 38.207ZM60.0596 36.2441H67.2666C67.2666 35.0137 67.0029 34.0225 66.4756 33.2705C65.9482 32.5186 65.1182 32.1426 63.9854 32.1426C62.833 32.1426 61.9102 32.5283 61.2168 33.2998C60.5332 34.0713 60.1475 35.0527 60.0596 36.2441ZM71.9395 45.2529L72.6279 43.2168C72.8037 43.2754 73.043 43.3486 73.3457 43.4365C73.6582 43.5244 74.2246 43.6416 75.0449 43.7881C75.875 43.9248 76.6221 43.9932 77.2861 43.9932C78.4092 43.9932 79.2783 43.7686 79.8936 43.3193C80.5088 42.8604 80.8164 42.2061 80.8164 41.3564C80.8164 40.4678 80.46 39.7939 79.7471 39.335C79.0439 38.876 78.043 38.6465 76.7441 38.6465H74.7373V36.5518H76.8613C78.0918 36.5518 79.0049 36.3564 79.6006 35.9658C80.1963 35.5752 80.4941 34.9404 80.4941 34.0615C80.4941 33.3975 80.2109 32.8994 79.6445 32.5674C79.0879 32.2256 78.3115 32.0547 77.3154 32.0547C76.876 32.0547 76.4121 32.084 75.9238 32.1426C75.4355 32.1914 75.0596 32.2402 74.7959 32.2891L74.4004 32.377L74.1953 34.1787H72.3936L72.2764 30.5459C74.0732 30.0479 75.792 29.7988 77.4326 29.7988C79.2881 29.7988 80.7627 30.1455 81.8564 30.8389C82.9502 31.5322 83.4971 32.5381 83.4971 33.8564C83.4971 35.8584 82.3643 37.1084 80.0986 37.6064C81.3291 37.8311 82.2812 38.2607 82.9551 38.8955C83.6289 39.5205 83.9658 40.2871 83.9658 41.1953C83.9658 41.9375 83.8438 42.6016 83.5996 43.1875C83.3555 43.7734 83.0234 44.2568 82.6035 44.6377C82.1934 45.0186 81.6953 45.3359 81.1094 45.5898C80.5234 45.8438 79.9082 46.0244 79.2637 46.1318C78.6191 46.2393 77.9209 46.293 77.1689 46.293C76.3193 46.293 75.46 46.2051 74.5908 46.0293C73.7217 45.8633 73.0625 45.6924 72.6133 45.5166L71.9395 45.2529ZM85.9873 43.9053L87.1152 43.7441C88.0918 43.5781 88.8242 43.0654 89.3125 42.2061C89.8008 41.3369 90.1523 39.9502 90.3672 38.0459C90.5625 36.2686 90.7188 34.418 90.8359 32.4941L87.7451 31.8936V30.1064H103.023V31.8936L100.475 32.4941V43.5977L103.478 44.0518L103.316 50.8047H101.222L100.65 46H88.7998L88.2285 50.8047H86.1338L85.9873 43.9053ZM90.8652 43.5977H97.4717V32.4941H93.1211C93.0234 34.1836 92.8721 36.0537 92.667 38.1045C92.4814 39.8135 92.2568 41.0781 91.9932 41.8984C91.7393 42.709 91.3633 43.2754 90.8652 43.5977ZM105.118 46V44.3447L107.667 43.5977V32.4941L105.118 31.8936V30.2529L110.67 30.1064V36.8447H113.219L115.475 32.3184L114.127 31.8936V30.2529L120.719 30.1064V31.8936L118.595 32.2598H118.565L115.475 37.6064L119.342 43.5977H119.371L121.627 44.3447V46H117.569L113.277 39.1006H110.67V43.5977L112.618 44.3447V46H105.118ZM123.121 46V44.3447L125.67 43.5977V32.4941L123.121 31.8936V30.2529L130.475 30.1064V31.8936L128.526 32.4941V40.1553L136.173 33.2559V32.4941L134.225 31.8936V30.2529L141.563 30.1064V31.8936L139.015 32.4941V43.5977L141.563 44.3447V46H134.225V44.3447L136.173 43.5977V35.9512L128.526 42.8506V43.5977L130.475 44.3447V46H123.121Z" fill="black"/>
</svg>
