<svg width="160" height="69" viewBox="0 0 160 69" fill="none" xmlns="http://www.w3.org/2000/svg">
<rect x="1" y="1" width="158" height="67" rx="33.5" fill="white" fill-opacity="0.8" stroke="black" stroke-width="2"/>
<path d="M30.6201 45V43.1982L33.1689 42.5977V26.3965L30.6201 25.7959V24.1553L38.5742 23.9941V25.7959L36.3184 26.3965V42.5977H43.3643V26.3965L41.123 25.7959V24.1553L48.7695 23.9941V25.7959L46.5137 26.3965V42.5977H53.5742V26.3965L51.3184 25.7959V24.1553L59.2725 23.9941V25.7959L56.7236 26.3965V42.5977L59.2725 43.1982V45H30.6201ZM61.2207 45V43.3447L63.7695 42.5977V31.4941L61.2207 30.8936V29.2529L66.7725 29.1064V35.8447H69.3213L71.5771 31.3184L70.2295 30.8936V29.2529L76.8213 29.1064V30.8936L74.6973 31.2598H74.668L71.5771 36.6064L75.4443 42.5977H75.4736L77.7295 43.3447V45H73.6719L69.3799 38.1006H66.7725V42.5977L68.7207 43.3447V45H61.2207ZM79.2236 37.207C79.2236 34.6777 79.9316 32.6465 81.3477 31.1133C82.7637 29.5703 84.6045 28.7988 86.8701 28.7988C89.0869 28.7988 90.8154 29.5166 92.0557 30.9521C93.2959 32.3877 93.916 34.3213 93.916 36.7529C93.916 39.3018 93.2275 41.3623 91.8506 42.9346C90.4736 44.5068 88.6621 45.293 86.416 45.293C84.1309 45.293 82.3584 44.6094 81.0986 43.2422C79.8486 41.875 79.2236 39.8633 79.2236 37.207ZM82.373 37.0459C82.373 40.9521 83.7744 42.9053 86.5771 42.9053C88.042 42.9053 89.1064 42.4072 89.7705 41.4111C90.4346 40.4053 90.7666 38.9014 90.7666 36.8994C90.7666 33.1006 89.4189 31.2012 86.7236 31.2012C85.2393 31.2012 84.1406 31.6846 83.4277 32.6514C82.7246 33.6182 82.373 35.083 82.373 37.0459ZM95.2197 45.0586L95.5566 42.2754C95.8203 42.334 96.1084 42.3633 96.4209 42.3633C97.417 42.3633 98.1787 41.958 98.7061 41.1475C99.2432 40.3271 99.6094 38.96 99.8047 37.0459C100.01 34.9463 100.151 33.0957 100.229 31.4941L97.1387 30.8936V29.1064H112.417V30.8936L109.868 31.4941V42.5977L112.417 43.3447V45H104.316V43.3447L106.865 42.5977V31.4941H102.515C102.427 33.1543 102.285 35.0781 102.09 37.2656C101.973 38.6035 101.807 39.7461 101.592 40.6934C101.377 41.6406 101.084 42.4707 100.713 43.1836C100.352 43.8965 99.8877 44.4287 99.3213 44.7803C98.7549 45.1221 98.0762 45.293 97.2852 45.293C96.709 45.293 96.0205 45.2148 95.2197 45.0586ZM114.966 40.7959C114.966 39.1455 115.557 37.959 116.738 37.2363C117.93 36.5137 119.639 36.1523 121.865 36.1523H124.268V33.75C124.268 32.8613 124.019 32.1924 123.521 31.7432C123.032 31.2842 122.329 31.0547 121.411 31.0547C120.874 31.0547 120.352 31.0938 119.844 31.1719C119.346 31.2402 118.979 31.3086 118.745 31.377L118.394 31.4941L117.969 33.75H116.021L115.874 30C116.118 29.9121 116.445 29.8047 116.855 29.6777C117.275 29.541 118.003 29.3604 119.038 29.1357C120.073 28.9111 120.967 28.7988 121.719 28.7988C123.545 28.7988 124.927 29.1602 125.864 29.8828C126.802 30.6055 127.271 31.7969 127.271 33.457V42.5977L129.673 43.1982V44.8535L125.015 45L124.385 42.9053C123.74 43.5498 122.993 44.1113 122.144 44.5898C121.294 45.0586 120.4 45.293 119.463 45.293C118.037 45.293 116.929 44.9023 116.138 44.1211C115.356 43.3301 114.966 42.2217 114.966 40.7959ZM118.027 40.6494C118.027 41.3232 118.223 41.8701 118.613 42.29C119.014 42.7002 119.551 42.9053 120.225 42.9053C120.645 42.9053 121.069 42.8223 121.499 42.6562C121.938 42.4902 122.314 42.29 122.627 42.0557C122.949 41.8213 123.237 41.5869 123.491 41.3525C123.745 41.1182 123.94 40.918 124.077 40.752L124.268 40.5029V38.1006H122.173C120.679 38.1006 119.614 38.3008 118.979 38.7012C118.345 39.0918 118.027 39.7412 118.027 40.6494Z" fill="black"/>
</svg>
