<svg width="160" height="69" viewBox="0 0 160 69" fill="none" xmlns="http://www.w3.org/2000/svg">
<rect x="0.5" y="0.5" width="159" height="68" rx="34" fill="white" fill-opacity="0.5" stroke="black"/>
<path d="M25.51 39.83C26.09 39.39 26.6 38.85 27.04 38.21C27.48 37.57 27.85 36.78 28.15 35.84C28.47 34.88 28.72 33.74 28.9 32.42C29.08 31.08 29.21 29.5 29.29 27.68C29.39 25.86 29.44 23.76 29.44 21.38L29.05 21.92L36.34 21.89L35.89 21.29V39.83L36.4 39.17H25.45L25.51 39.83ZM23.71 39.56L24.55 39.17L22.27 39.26L22.21 46.31H23.71L24.7 40.76L24.43 41H39.37L39.07 40.76L40.03 46.31H41.53V39.26L37.9 39.17L38.35 39.83V21.47L37.93 22.04L40.93 21.35V20.06H29.41L24.88 20.21V21.5L27.97 22.04L27.49 21.59C27.47 23.91 27.42 25.94 27.34 27.68C27.26 29.4 27.13 30.89 26.95 32.15C26.79 33.41 26.57 34.49 26.29 35.39C26.01 36.29 25.66 37.08 25.24 37.76C24.82 38.42 24.31 39.02 23.71 39.56ZM50.5241 41.27C49.1841 41.27 47.9941 40.97 46.9541 40.37C45.9341 39.75 45.1341 38.85 44.5541 37.67C43.9741 36.49 43.6841 35.05 43.6841 33.35C43.6841 31.61 43.9841 30.11 44.5841 28.85C45.1841 27.59 46.0341 26.62 47.1341 25.94C48.2341 25.24 49.5241 24.89 51.0041 24.89C52.4041 24.89 53.5541 25.19 54.4541 25.79C55.3741 26.37 56.0541 27.18 56.4941 28.22C56.9541 29.26 57.1841 30.45 57.1841 31.79C57.1841 32.01 57.1741 32.23 57.1541 32.45C57.1341 32.67 57.1041 32.94 57.0641 33.26H45.5141V31.55H54.9641L54.6941 31.73C54.7141 30.83 54.6041 30 54.3641 29.24C54.1241 28.48 53.7141 27.87 53.1341 27.41C52.5541 26.95 51.7841 26.72 50.8241 26.72C49.8041 26.72 48.9441 26.99 48.2441 27.53C47.5441 28.07 47.0241 28.81 46.6841 29.75C46.3441 30.69 46.1741 31.78 46.1741 33.02C46.1741 34.34 46.3641 35.48 46.7441 36.44C47.1241 37.38 47.6741 38.11 48.3941 38.63C49.1341 39.15 50.0341 39.41 51.0941 39.41C51.8341 39.41 52.6441 39.27 53.5241 38.99C54.4041 38.69 55.3141 38.24 56.2541 37.64L57.1241 38.99C56.0041 39.75 54.8841 40.32 53.7641 40.7C52.6441 41.08 51.5641 41.27 50.5241 41.27ZM62.1946 41V39.71L65.5246 39.17L64.9846 39.8V26.57L65.5546 26.99H60.4546L60.9946 26.48L60.4546 29.78H58.9546V25.16H73.4146V29.78H71.9146L71.3746 26.57L71.8846 26.99H66.8746L67.3846 26.57V39.8L66.9346 39.17L70.2346 39.71V41H62.1946ZM81.3709 41.27C80.0909 41.27 78.9309 40.96 77.8909 40.34C76.8709 39.7 76.0609 38.78 75.4609 37.58C74.8809 36.38 74.5909 34.94 74.5909 33.26C74.5909 31.8 74.7909 30.55 75.1909 29.51C75.6109 28.45 76.1709 27.58 76.8709 26.9C77.5709 26.22 78.3709 25.72 79.2709 25.4C80.1909 25.06 81.1409 24.89 82.1209 24.89C82.9209 24.89 83.7709 25 84.6709 25.22C85.5909 25.44 86.3909 25.74 87.0709 26.12L86.9509 29.87H85.3309L84.9409 27.05L85.1809 27.32C84.6809 27.08 84.1509 26.91 83.5909 26.81C83.0309 26.71 82.5309 26.66 82.0909 26.66C81.0509 26.66 80.1509 26.93 79.3909 27.47C78.6509 27.99 78.0809 28.73 77.6809 29.69C77.2809 30.65 77.0809 31.79 77.0809 33.11C77.0809 34.47 77.2909 35.62 77.7109 36.56C78.1309 37.5 78.7009 38.21 79.4209 38.69C80.1609 39.17 80.9909 39.41 81.9109 39.41C82.6309 39.41 83.3909 39.26 84.1909 38.96C84.9909 38.66 85.8209 38.21 86.6809 37.61L87.5209 38.93C86.4809 39.73 85.4409 40.32 84.4009 40.7C83.3609 41.08 82.3509 41.27 81.3709 41.27ZM92.0188 41V39.71L95.3488 39.17L94.8088 39.8V26.57L95.3788 26.99H90.2788L90.8188 26.48L90.2788 29.78H88.7788V25.16H103.239V29.78H101.739L101.199 26.57L101.709 26.99H96.6988L97.2088 26.57V39.8L96.7588 39.17L100.059 39.71V41H92.0188ZM109.237 25.16H112.237C113.517 25.16 114.597 25.29 115.477 25.55C116.357 25.81 117.017 26.22 117.457 26.78C117.917 27.32 118.147 28.04 118.147 28.94C118.147 29.76 117.947 30.44 117.547 30.98C117.167 31.52 116.597 31.94 115.837 32.24C115.077 32.52 114.117 32.71 112.957 32.81L113.077 32.57C113.977 32.57 114.777 32.65 115.477 32.81C116.177 32.97 116.777 33.22 117.277 33.56C117.797 33.9 118.187 34.33 118.447 34.85C118.727 35.35 118.867 35.97 118.867 36.71C118.867 38.15 118.307 39.23 117.187 39.95C116.087 40.65 114.357 41 111.997 41H104.497V39.71L107.107 39.14L106.837 39.47V26.81L107.077 27.08L104.497 26.54V25.25L109.237 25.16ZM111.757 26.81H108.817L109.237 26.39V32.42L108.817 32.06H111.007C112.687 32.06 113.897 31.83 114.637 31.37C115.377 30.91 115.747 30.22 115.747 29.3C115.747 28.4 115.417 27.76 114.757 27.38C114.097 27 113.097 26.81 111.757 26.81ZM111.727 39.32C113.347 39.32 114.517 39.1 115.237 38.66C115.977 38.22 116.347 37.49 116.347 36.47C116.347 35.49 116.017 34.74 115.357 34.22C114.717 33.7 113.707 33.44 112.327 33.44H108.817L109.237 33.05V39.71L108.817 39.32H111.727ZM129.14 24.89C131.34 24.89 133.06 25.58 134.3 26.96C135.56 28.34 136.19 30.29 136.19 32.81C136.19 34.51 135.88 36 135.26 37.28C134.66 38.54 133.8 39.52 132.68 40.22C131.56 40.92 130.21 41.27 128.63 41.27C126.47 41.27 124.78 40.6 123.56 39.26C122.34 37.9 121.73 35.95 121.73 33.41C121.73 31.65 122.02 30.14 122.6 28.88C123.2 27.6 124.05 26.62 125.15 25.94C126.27 25.24 127.6 24.89 129.14 24.89ZM129.02 26.66C127.48 26.66 126.3 27.24 125.48 28.4C124.66 29.56 124.25 31.19 124.25 33.29C124.25 35.35 124.64 36.9 125.42 37.94C126.2 38.98 127.32 39.5 128.78 39.5C129.84 39.5 130.73 39.24 131.45 38.72C132.19 38.18 132.74 37.42 133.1 36.44C133.48 35.46 133.67 34.29 133.67 32.93C133.67 30.89 133.26 29.34 132.44 28.28C131.64 27.2 130.5 26.66 129.02 26.66Z" fill="black"/>
<rect x="0.5" y="0.5" width="159" height="68" rx="34" fill="white" fill-opacity="0.5" stroke="black"/>
<path d="M25.51 39.83C26.09 39.39 26.6 38.85 27.04 38.21C27.48 37.57 27.85 36.78 28.15 35.84C28.47 34.88 28.72 33.74 28.9 32.42C29.08 31.08 29.21 29.5 29.29 27.68C29.39 25.86 29.44 23.76 29.44 21.38L29.05 21.92L36.34 21.89L35.89 21.29V39.83L36.4 39.17H25.45L25.51 39.83ZM23.71 39.56L24.55 39.17L22.27 39.26L22.21 46.31H23.71L24.7 40.76L24.43 41H39.37L39.07 40.76L40.03 46.31H41.53V39.26L37.9 39.17L38.35 39.83V21.47L37.93 22.04L40.93 21.35V20.06H29.41L24.88 20.21V21.5L27.97 22.04L27.49 21.59C27.47 23.91 27.42 25.94 27.34 27.68C27.26 29.4 27.13 30.89 26.95 32.15C26.79 33.41 26.57 34.49 26.29 35.39C26.01 36.29 25.66 37.08 25.24 37.76C24.82 38.42 24.31 39.02 23.71 39.56ZM50.5241 41.27C49.1841 41.27 47.9941 40.97 46.9541 40.37C45.9341 39.75 45.1341 38.85 44.5541 37.67C43.9741 36.49 43.6841 35.05 43.6841 33.35C43.6841 31.61 43.9841 30.11 44.5841 28.85C45.1841 27.59 46.0341 26.62 47.1341 25.94C48.2341 25.24 49.5241 24.89 51.0041 24.89C52.4041 24.89 53.5541 25.19 54.4541 25.79C55.3741 26.37 56.0541 27.18 56.4941 28.22C56.9541 29.26 57.1841 30.45 57.1841 31.79C57.1841 32.01 57.1741 32.23 57.1541 32.45C57.1341 32.67 57.1041 32.94 57.0641 33.26H45.5141V31.55H54.9641L54.6941 31.73C54.7141 30.83 54.6041 30 54.3641 29.24C54.1241 28.48 53.7141 27.87 53.1341 27.41C52.5541 26.95 51.7841 26.72 50.8241 26.72C49.8041 26.72 48.9441 26.99 48.2441 27.53C47.5441 28.07 47.0241 28.81 46.6841 29.75C46.3441 30.69 46.1741 31.78 46.1741 33.02C46.1741 34.34 46.3641 35.48 46.7441 36.44C47.1241 37.38 47.6741 38.11 48.3941 38.63C49.1341 39.15 50.0341 39.41 51.0941 39.41C51.8341 39.41 52.6441 39.27 53.5241 38.99C54.4041 38.69 55.3141 38.24 56.2541 37.64L57.1241 38.99C56.0041 39.75 54.8841 40.32 53.7641 40.7C52.6441 41.08 51.5641 41.27 50.5241 41.27ZM62.1946 41V39.71L65.5246 39.17L64.9846 39.8V26.57L65.5546 26.99H60.4546L60.9946 26.48L60.4546 29.78H58.9546V25.16H73.4146V29.78H71.9146L71.3746 26.57L71.8846 26.99H66.8746L67.3846 26.57V39.8L66.9346 39.17L70.2346 39.71V41H62.1946ZM81.3709 41.27C80.0909 41.27 78.9309 40.96 77.8909 40.34C76.8709 39.7 76.0609 38.78 75.4609 37.58C74.8809 36.38 74.5909 34.94 74.5909 33.26C74.5909 31.8 74.7909 30.55 75.1909 29.51C75.6109 28.45 76.1709 27.58 76.8709 26.9C77.5709 26.22 78.3709 25.72 79.2709 25.4C80.1909 25.06 81.1409 24.89 82.1209 24.89C82.9209 24.89 83.7709 25 84.6709 25.22C85.5909 25.44 86.3909 25.74 87.0709 26.12L86.9509 29.87H85.3309L84.9409 27.05L85.1809 27.32C84.6809 27.08 84.1509 26.91 83.5909 26.81C83.0309 26.71 82.5309 26.66 82.0909 26.66C81.0509 26.66 80.1509 26.93 79.3909 27.47C78.6509 27.99 78.0809 28.73 77.6809 29.69C77.2809 30.65 77.0809 31.79 77.0809 33.11C77.0809 34.47 77.2909 35.62 77.7109 36.56C78.1309 37.5 78.7009 38.21 79.4209 38.69C80.1609 39.17 80.9909 39.41 81.9109 39.41C82.6309 39.41 83.3909 39.26 84.1909 38.96C84.9909 38.66 85.8209 38.21 86.6809 37.61L87.5209 38.93C86.4809 39.73 85.4409 40.32 84.4009 40.7C83.3609 41.08 82.3509 41.27 81.3709 41.27ZM92.0188 41V39.71L95.3488 39.17L94.8088 39.8V26.57L95.3788 26.99H90.2788L90.8188 26.48L90.2788 29.78H88.7788V25.16H103.239V29.78H101.739L101.199 26.57L101.709 26.99H96.6988L97.2088 26.57V39.8L96.7588 39.17L100.059 39.71V41H92.0188ZM109.237 25.16H112.237C113.517 25.16 114.597 25.29 115.477 25.55C116.357 25.81 117.017 26.22 117.457 26.78C117.917 27.32 118.147 28.04 118.147 28.94C118.147 29.76 117.947 30.44 117.547 30.98C117.167 31.52 116.597 31.94 115.837 32.24C115.077 32.52 114.117 32.71 112.957 32.81L113.077 32.57C113.977 32.57 114.777 32.65 115.477 32.81C116.177 32.97 116.777 33.22 117.277 33.56C117.797 33.9 118.187 34.33 118.447 34.85C118.727 35.35 118.867 35.97 118.867 36.71C118.867 38.15 118.307 39.23 117.187 39.95C116.087 40.65 114.357 41 111.997 41H104.497V39.71L107.107 39.14L106.837 39.47V26.81L107.077 27.08L104.497 26.54V25.25L109.237 25.16ZM111.757 26.81H108.817L109.237 26.39V32.42L108.817 32.06H111.007C112.687 32.06 113.897 31.83 114.637 31.37C115.377 30.91 115.747 30.22 115.747 29.3C115.747 28.4 115.417 27.76 114.757 27.38C114.097 27 113.097 26.81 111.757 26.81ZM111.727 39.32C113.347 39.32 114.517 39.1 115.237 38.66C115.977 38.22 116.347 37.49 116.347 36.47C116.347 35.49 116.017 34.74 115.357 34.22C114.717 33.7 113.707 33.44 112.327 33.44H108.817L109.237 33.05V39.71L108.817 39.32H111.727ZM129.14 24.89C131.34 24.89 133.06 25.58 134.3 26.96C135.56 28.34 136.19 30.29 136.19 32.81C136.19 34.51 135.88 36 135.26 37.28C134.66 38.54 133.8 39.52 132.68 40.22C131.56 40.92 130.21 41.27 128.63 41.27C126.47 41.27 124.78 40.6 123.56 39.26C122.34 37.9 121.73 35.95 121.73 33.41C121.73 31.65 122.02 30.14 122.6 28.88C123.2 27.6 124.05 26.62 125.15 25.94C126.27 25.24 127.6 24.89 129.14 24.89ZM129.02 26.66C127.48 26.66 126.3 27.24 125.48 28.4C124.66 29.56 124.25 31.19 124.25 33.29C124.25 35.35 124.64 36.9 125.42 37.94C126.2 38.98 127.32 39.5 128.78 39.5C129.84 39.5 130.73 39.24 131.45 38.72C132.19 38.18 132.74 37.42 133.1 36.44C133.48 35.46 133.67 34.29 133.67 32.93C133.67 30.89 133.26 29.34 132.44 28.28C131.64 27.2 130.5 26.66 129.02 26.66Z" fill="black"/>
</svg>
