<svg width="160" height="69" viewBox="0 0 160 69" fill="none" xmlns="http://www.w3.org/2000/svg">
<rect x="0.5" y="0.5" width="159" height="68" rx="34" fill="white" fill-opacity="0.5" stroke="black"/>
<rect x="0.5" y="0.5" width="159" height="68" rx="34" fill="white" fill-opacity="0.5" stroke="black"/>
<path d="M33.47 41V39.71L36.44 39.08L36.05 39.62V21.47L36.53 22.04L33.47 21.5V20.21L41.06 20.06V21.35L38.09 22.04L38.51 21.47V39.83L38.12 39.17H46.64L46.13 39.8V21.47L46.58 22.04L43.58 21.5V20.21L51.14 20.06V21.35L48.2 22.04L48.59 21.47V39.83L48.2 39.17H56.72L56.21 39.83V21.47L56.66 22.04L53.66 21.5V20.21L61.28 20.06V21.35L58.28 22.04L58.67 21.47V39.74L58.28 39.08L61.28 39.71V41H33.47ZM63.8424 41V39.71L66.5424 39.11L66.1824 39.62V26.51L66.5724 27.05L63.8424 26.51V25.25L70.8024 25.07V26.33L68.2824 26.96L68.5824 26.51V32.39L68.1324 31.85H72.3924L71.5824 32.3L75.0024 26.57L75.2124 26.9L72.7224 26.54V25.25L79.3224 25.04V26.33L76.6524 26.87L77.3424 26.42L73.4424 32.9L73.5924 32.18L78.0624 39.53L77.6724 39.2L80.1624 39.71V41H76.3524L71.8524 33.38L72.3324 33.53H68.1324L68.5824 33.35V39.62L68.2824 39.11L71.1624 39.71V41H63.8424ZM88.1052 24.89C90.3052 24.89 92.0252 25.58 93.2652 26.96C94.5252 28.34 95.1552 30.29 95.1552 32.81C95.1552 34.51 94.8452 36 94.2252 37.28C93.6252 38.54 92.7652 39.52 91.6452 40.22C90.5252 40.92 89.1752 41.27 87.5952 41.27C85.4352 41.27 83.7452 40.6 82.5252 39.26C81.3052 37.9 80.6952 35.95 80.6952 33.41C80.6952 31.65 80.9852 30.14 81.5652 28.88C82.1652 27.6 83.0152 26.62 84.1152 25.94C85.2352 25.24 86.5652 24.89 88.1052 24.89ZM87.9852 26.66C86.4452 26.66 85.2652 27.24 84.4452 28.4C83.6252 29.56 83.2152 31.19 83.2152 33.29C83.2152 35.35 83.6052 36.9 84.3852 37.94C85.1652 38.98 86.2852 39.5 87.7452 39.5C88.8052 39.5 89.6952 39.24 90.4152 38.72C91.1552 38.18 91.7052 37.42 92.0652 36.44C92.4452 35.46 92.6352 34.29 92.6352 32.93C92.6352 30.89 92.2252 29.34 91.4052 28.28C90.6052 27.2 89.4652 26.66 87.9852 26.66ZM98.1116 41.24C97.8316 41.24 97.5416 41.21 97.2416 41.15C96.9416 41.11 96.6116 41.04 96.2516 40.94L96.6116 38.99C96.7716 39.01 96.9216 39.03 97.0616 39.05C97.2216 39.07 97.3716 39.08 97.5116 39.08C98.6516 39.08 99.4916 38.58 100.032 37.58C100.592 36.56 100.962 35.1 101.142 33.2C101.342 31.3 101.452 29.02 101.472 26.36L102.102 27.08L98.8616 26.45V25.16H112.842V26.45L109.962 27.11L110.502 26.36V39.47L110.232 39.14L112.842 39.71V41H105.732V39.71L108.342 39.14L108.102 39.47V26.3L108.522 26.99H102.612L103.362 26.3C103.342 28.64 103.252 30.73 103.092 32.57C102.952 34.41 102.692 35.98 102.312 37.28C101.932 38.56 101.402 39.54 100.722 40.22C100.042 40.9 99.1716 41.24 98.1116 41.24ZM127.413 39.65L127.023 39.11L129.783 39.65V40.97L125.583 41.15L125.223 38.27L125.433 38.36C124.553 39.32 123.603 40.05 122.583 40.55C121.563 41.03 120.573 41.27 119.613 41.27C118.453 41.27 117.473 40.9 116.673 40.16C115.873 39.42 115.473 38.3 115.473 36.8C115.473 35.62 115.723 34.72 116.223 34.1C116.723 33.46 117.413 33.01 118.293 32.75C119.173 32.49 120.193 32.36 121.353 32.36H125.283L125.013 32.66V29.78C125.013 28.68 124.723 27.9 124.143 27.44C123.563 26.96 122.763 26.72 121.743 26.72C121.203 26.72 120.623 26.78 120.003 26.9C119.403 27 118.763 27.17 118.083 27.41L118.443 27.02L118.143 29.75H116.553L116.313 26.03C117.453 25.65 118.523 25.37 119.523 25.19C120.523 24.99 121.443 24.89 122.283 24.89C123.883 24.89 125.133 25.25 126.033 25.97C126.953 26.67 127.413 27.8 127.413 29.36V39.65ZM117.903 36.59C117.903 37.57 118.133 38.29 118.593 38.75C119.073 39.21 119.673 39.44 120.393 39.44C121.093 39.44 121.863 39.23 122.703 38.81C123.563 38.37 124.393 37.78 125.193 37.04L125.013 37.67V33.65L125.283 33.92H121.713C120.293 33.92 119.303 34.14 118.743 34.58C118.183 35 117.903 35.67 117.903 36.59Z" fill="black"/>
</svg>
