<svg width="160" height="69" viewBox="0 0 160 69" fill="none" xmlns="http://www.w3.org/2000/svg">
<rect x="1" y="1" width="158" height="67" rx="33.5" fill="white" fill-opacity="0.8" stroke="black" stroke-width="2"/>
<path d="M25.421 44V42.753L28.292 42.144L27.915 42.666V25.121L28.379 25.672L25.421 25.15V23.903L30.293 23.758H45.199V25.005L42.299 25.672L42.676 25.121V42.666L42.299 42.144L45.199 42.753V44H37.804V42.753L40.675 42.144L40.327 42.666V24.947L40.733 25.527L29.887 25.556L30.293 24.918V42.666L29.916 42.144L32.816 42.753V44H25.421ZM54.6442 28.427C56.7708 28.427 58.4335 29.094 59.6322 30.428C60.8502 31.762 61.4592 33.647 61.4592 36.083C61.4592 37.7263 61.1595 39.1667 60.5602 40.404C59.9802 41.622 59.1488 42.5693 58.0662 43.246C56.9835 43.9227 55.6785 44.261 54.1512 44.261C52.0632 44.261 50.4295 43.6133 49.2502 42.318C48.0708 41.0033 47.4812 39.1183 47.4812 36.663C47.4812 34.9617 47.7615 33.502 48.3222 32.284C48.9022 31.0467 49.7238 30.0993 50.7872 29.442C51.8698 28.7653 53.1555 28.427 54.6442 28.427ZM54.5282 30.138C53.0395 30.138 51.8988 30.6987 51.1062 31.82C50.3135 32.9413 49.9172 34.517 49.9172 36.547C49.9172 38.5383 50.2942 40.0367 51.0482 41.042C51.8022 42.0473 52.8848 42.55 54.2962 42.55C55.3208 42.55 56.1812 42.2987 56.8772 41.796C57.5925 41.274 58.1242 40.5393 58.4722 39.592C58.8395 38.6447 59.0232 37.5137 59.0232 36.199C59.0232 34.227 58.6268 32.7287 57.8342 31.704C57.0608 30.66 55.9588 30.138 54.5282 30.138ZM70.8028 44.261C69.5075 44.261 68.3572 43.971 67.3518 43.391C66.3658 42.7917 65.5925 41.9217 65.0318 40.781C64.4712 39.6403 64.1908 38.2483 64.1908 36.605C64.1908 34.923 64.4808 33.473 65.0608 32.255C65.6408 31.037 66.4625 30.0993 67.5258 29.442C68.5892 28.7653 69.8362 28.427 71.2668 28.427C72.6202 28.427 73.7318 28.717 74.6018 29.297C75.4912 29.8577 76.1485 30.6407 76.5738 31.646C77.0185 32.6513 77.2408 33.8017 77.2408 35.097C77.2408 35.3097 77.2312 35.5223 77.2118 35.735C77.1925 35.9477 77.1635 36.2087 77.1248 36.518H65.9598V34.865H75.0948L74.8338 35.039C74.8532 34.169 74.7468 33.3667 74.5148 32.632C74.2828 31.8973 73.8865 31.3077 73.3258 30.863C72.7652 30.4183 72.0208 30.196 71.0928 30.196C70.1068 30.196 69.2755 30.457 68.5988 30.979C67.9222 31.501 67.4195 32.2163 67.0908 33.125C66.7622 34.0337 66.5978 35.0873 66.5978 36.286C66.5978 37.562 66.7815 38.664 67.1488 39.592C67.5162 40.5007 68.0478 41.2063 68.7438 41.709C69.4592 42.2117 70.3292 42.463 71.3538 42.463C72.0692 42.463 72.8522 42.3277 73.7028 42.057C74.5535 41.767 75.4332 41.332 76.3418 40.752L77.1828 42.057C76.1002 42.7917 75.0175 43.3427 73.9348 43.71C72.8522 44.0773 71.8082 44.261 70.8028 44.261ZM84.3538 44.261C83.4644 44.261 82.5751 44.1547 81.6858 43.942C80.7964 43.7293 79.9748 43.4103 79.2208 42.985L79.7718 41.477C80.4484 41.8443 81.1734 42.1343 81.9468 42.347C82.7394 42.5403 83.5031 42.637 84.2378 42.637C84.9918 42.637 85.6878 42.5307 86.3258 42.318C86.9831 42.1053 87.5051 41.7767 87.8918 41.332C88.2784 40.8873 88.4718 40.3073 88.4718 39.592C88.4718 39.0507 88.3364 38.5673 88.0658 38.142C87.7951 37.7167 87.3408 37.3783 86.7028 37.127C86.0841 36.8757 85.2431 36.75 84.1798 36.75H82.2658V35.3H84.1798C85.5718 35.3 86.5868 35.0583 87.2248 34.575C87.8628 34.0723 88.1818 33.4053 88.1818 32.574C88.1818 31.646 87.8434 30.9887 87.1668 30.602C86.5094 30.2153 85.6781 30.022 84.6728 30.022C84.1121 30.022 83.5321 30.0703 82.9328 30.167C82.3334 30.2637 81.7244 30.3893 81.1058 30.544L81.6568 29.964L81.2798 32.748H79.7428L79.6268 29.297C80.5548 29.0263 81.4731 28.8137 82.3818 28.659C83.3098 28.5043 84.1991 28.427 85.0498 28.427C86.0744 28.427 87.0024 28.5623 87.8338 28.833C88.6651 29.0843 89.3128 29.5 89.7768 30.08C90.2601 30.6407 90.5018 31.3753 90.5018 32.284C90.5018 33.4053 90.1344 34.2753 89.3998 34.894C88.6844 35.4933 87.5534 35.88 86.0068 36.054L85.9488 35.851C87.6694 35.9283 88.9164 36.315 89.6898 37.011C90.4824 37.6877 90.8788 38.577 90.8788 39.679C90.8788 40.723 90.5694 41.593 89.9508 42.289C89.3321 42.9657 88.5298 43.4683 87.5438 43.797C86.5578 44.1063 85.4944 44.261 84.3538 44.261ZM92.2594 48.582L92.1724 42.608L94.5504 42.231L93.1874 42.782C93.8641 42.2987 94.4441 41.7477 94.9274 41.129C95.4301 40.5103 95.8458 39.737 96.1744 38.809C96.5031 37.8617 96.7448 36.6823 96.8994 35.271C97.0734 33.8403 97.1701 32.0907 97.1894 30.022L97.7984 30.544L94.6664 29.935V28.688H108.035V29.935L105.251 30.573L105.744 30.051V42.695L105.251 42.26L108.789 42.666L108.76 48.582H107.281L106.614 43.594L107.165 44H93.7384L94.3474 43.594L93.7094 48.582H92.2594ZM95.3624 42.666L95.4204 42.231H103.888L103.424 42.637V29.906L103.83 30.457H98.4074L98.9004 29.877C98.9004 32.371 98.7748 34.459 98.5234 36.141C98.2914 37.823 97.9144 39.186 97.3924 40.23C96.8898 41.2547 96.2131 42.0667 95.3624 42.666ZM110.034 44V42.753L112.644 42.173L112.296 42.666V29.993L112.673 30.515L110.034 29.993V28.775L116.762 28.601V29.819L114.326 30.428L114.616 29.993V35.677L114.181 35.155H118.299L117.516 35.59L120.822 30.051L121.025 30.37L118.618 30.022V28.775L124.998 28.572V29.819L122.417 30.341L123.084 29.906L119.314 36.17L119.459 35.474L123.78 42.579L123.403 42.26L125.81 42.753V44H122.127L117.777 36.634L118.241 36.779H114.181L114.616 36.605V42.666L114.326 42.173L117.11 42.753V44H110.034ZM126.573 44V42.753L129.328 42.115L128.835 42.637V30.08L129.444 30.631L126.573 29.993V28.775L133.272 28.601V29.819L130.517 30.544L131.068 30.022V39.911L130.662 39.882L139.391 30.747L139.13 31.298L139.101 30.08L139.507 30.515L136.897 29.993V28.775L143.596 28.601V29.819L140.812 30.544L141.334 30.022V42.637L140.841 42.115L143.596 42.753V44H136.897V42.753L139.536 42.173L139.101 42.637V32.429L139.478 32.632L130.778 41.883L131.068 41.361V42.637L130.836 42.26L133.272 42.753V44H126.573Z" fill="black"/>
</svg>
