<svg width="160" height="69" viewBox="0 0 160 69" fill="none" xmlns="http://www.w3.org/2000/svg">
<rect x="1" y="1" width="158" height="67" rx="33.5" fill="white" fill-opacity="0.8" stroke="black" stroke-width="2"/>
<path d="M28.47 44V42.71L31.44 42.08L31.05 42.62V24.47L31.53 25.04L28.47 24.5V23.21L36.06 23.06V24.35L33.09 25.04L33.51 24.47V42.83L33.12 42.17H41.64L41.13 42.8V24.47L41.58 25.04L38.58 24.5V23.21L46.14 23.06V24.35L43.2 25.04L43.59 24.47V42.83L43.2 42.17H51.72L51.21 42.83V24.47L51.66 25.04L48.66 24.5V23.21L56.28 23.06V24.35L53.28 25.04L53.67 24.47V42.74L53.28 42.08L56.28 42.71V44H28.47ZM58.8424 44V42.71L61.5424 42.11L61.1824 42.62V29.51L61.5724 30.05L58.8424 29.51V28.25L65.8024 28.07V29.33L63.2824 29.96L63.5824 29.51V35.39L63.1324 34.85H67.3924L66.5824 35.3L70.0024 29.57L70.2124 29.9L67.7224 29.54V28.25L74.3224 28.04V29.33L71.6524 29.87L72.3424 29.42L68.4424 35.9L68.5924 35.18L73.0624 42.53L72.6724 42.2L75.1624 42.71V44H71.3524L66.8524 36.38L67.3324 36.53H63.1324L63.5824 36.35V42.62L63.2824 42.11L66.1624 42.71V44H58.8424ZM83.1052 27.89C85.3052 27.89 87.0252 28.58 88.2652 29.96C89.5252 31.34 90.1552 33.29 90.1552 35.81C90.1552 37.51 89.8452 39 89.2252 40.28C88.6252 41.54 87.7652 42.52 86.6452 43.22C85.5252 43.92 84.1752 44.27 82.5952 44.27C80.4352 44.27 78.7452 43.6 77.5252 42.26C76.3052 40.9 75.6952 38.95 75.6952 36.41C75.6952 34.65 75.9852 33.14 76.5652 31.88C77.1652 30.6 78.0152 29.62 79.1152 28.94C80.2352 28.24 81.5652 27.89 83.1052 27.89ZM82.9852 29.66C81.4452 29.66 80.2652 30.24 79.4452 31.4C78.6252 32.56 78.2152 34.19 78.2152 36.29C78.2152 38.35 78.6052 39.9 79.3852 40.94C80.1652 41.98 81.2852 42.5 82.7452 42.5C83.8052 42.5 84.6952 42.24 85.4152 41.72C86.1552 41.18 86.7052 40.42 87.0652 39.44C87.4452 38.46 87.6352 37.29 87.6352 35.93C87.6352 33.89 87.2252 32.34 86.4052 31.28C85.6052 30.2 84.4652 29.66 82.9852 29.66ZM93.1116 44.24C92.8316 44.24 92.5416 44.21 92.2416 44.15C91.9416 44.11 91.6116 44.04 91.2516 43.94L91.6116 41.99C91.7716 42.01 91.9216 42.03 92.0616 42.05C92.2216 42.07 92.3716 42.08 92.5116 42.08C93.6516 42.08 94.4916 41.58 95.0316 40.58C95.5916 39.56 95.9616 38.1 96.1416 36.2C96.3416 34.3 96.4516 32.02 96.4716 29.36L97.1016 30.08L93.8616 29.45V28.16H107.842V29.45L104.962 30.11L105.502 29.36V42.47L105.232 42.14L107.842 42.71V44H100.732V42.71L103.342 42.14L103.102 42.47V29.3L103.522 29.99H97.6116L98.3616 29.3C98.3416 31.64 98.2516 33.73 98.0916 35.57C97.9516 37.41 97.6916 38.98 97.3116 40.28C96.9316 41.56 96.4016 42.54 95.7216 43.22C95.0416 43.9 94.1716 44.24 93.1116 44.24ZM122.413 42.65L122.023 42.11L124.783 42.65V43.97L120.583 44.15L120.223 41.27L120.433 41.36C119.553 42.32 118.603 43.05 117.583 43.55C116.563 44.03 115.573 44.27 114.613 44.27C113.453 44.27 112.473 43.9 111.673 43.16C110.873 42.42 110.473 41.3 110.473 39.8C110.473 38.62 110.723 37.72 111.223 37.1C111.723 36.46 112.413 36.01 113.293 35.75C114.173 35.49 115.193 35.36 116.353 35.36H120.283L120.013 35.66V32.78C120.013 31.68 119.723 30.9 119.143 30.44C118.563 29.96 117.763 29.72 116.743 29.72C116.203 29.72 115.623 29.78 115.003 29.9C114.403 30 113.763 30.17 113.083 30.41L113.443 30.02L113.143 32.75H111.553L111.313 29.03C112.453 28.65 113.523 28.37 114.523 28.19C115.523 27.99 116.443 27.89 117.283 27.89C118.883 27.89 120.133 28.25 121.033 28.97C121.953 29.67 122.413 30.8 122.413 32.36V42.65ZM112.903 39.59C112.903 40.57 113.133 41.29 113.593 41.75C114.073 42.21 114.673 42.44 115.393 42.44C116.093 42.44 116.863 42.23 117.703 41.81C118.563 41.37 119.393 40.78 120.193 40.04L120.013 40.67V36.65L120.283 36.92H116.713C115.293 36.92 114.303 37.14 113.743 37.58C113.183 38 112.903 38.67 112.903 39.59Z" fill="black"/>
</svg>
