<svg width="160" height="69" viewBox="0 0 160 69" fill="none" xmlns="http://www.w3.org/2000/svg">
<rect x="0.5" y="0.5" width="159" height="68" rx="34" fill="white" fill-opacity="0.5" stroke="black"/>
<path d="M47.16 41.33C46.62 41.33 45.98 41.23 45.24 41.03L45.6 38.66C46.02 38.78 46.38 38.84 46.68 38.84C47.46 38.84 48.11 38.58 48.63 38.06C49.17 37.52 49.6 36.8 49.92 35.9C50.26 34.98 50.52 33.94 50.7 32.78C50.88 31.62 51.01 30.39 51.09 29.09C51.17 27.79 51.22 26.5 51.24 25.22C51.28 23.94 51.32 22.73 51.36 21.59L51.75 22.04L48.75 21.5V20.21L53.25 20.06H64.71V21.35L61.71 22.04L62.1 21.47V39.62L61.71 39.08L64.71 39.71V41H56.67V39.71L60.03 39.08L59.67 39.62V21.29L60.09 21.89L52.83 21.92L53.34 21.38C53.26 22.86 53.19 24.37 53.13 25.91C53.07 27.45 52.99 28.97 52.89 30.47C52.79 31.95 52.62 33.35 52.38 34.67C52.16 35.97 51.84 37.12 51.42 38.12C51 39.12 50.44 39.91 49.74 40.49C49.06 41.05 48.2 41.33 47.16 41.33ZM73.9343 41.27C72.5943 41.27 71.4043 40.97 70.3643 40.37C69.3443 39.75 68.5443 38.85 67.9643 37.67C67.3843 36.49 67.0943 35.05 67.0943 33.35C67.0943 31.61 67.3943 30.11 67.9943 28.85C68.5943 27.59 69.4443 26.62 70.5443 25.94C71.6443 25.24 72.9343 24.89 74.4143 24.89C75.8143 24.89 76.9643 25.19 77.8643 25.79C78.7843 26.37 79.4643 27.18 79.9043 28.22C80.3643 29.26 80.5943 30.45 80.5943 31.79C80.5943 32.01 80.5843 32.23 80.5643 32.45C80.5443 32.67 80.5143 32.94 80.4743 33.26H68.9243V31.55H78.3743L78.1043 31.73C78.1243 30.83 78.0143 30 77.7743 29.24C77.5343 28.48 77.1243 27.87 76.5443 27.41C75.9643 26.95 75.1943 26.72 74.2343 26.72C73.2143 26.72 72.3543 26.99 71.6543 27.53C70.9543 28.07 70.4343 28.81 70.0943 29.75C69.7543 30.69 69.5843 31.78 69.5843 33.02C69.5843 34.34 69.7743 35.48 70.1543 36.44C70.5343 37.38 71.0843 38.11 71.8043 38.63C72.5443 39.15 73.4443 39.41 74.5043 39.41C75.2443 39.41 76.0543 39.27 76.9343 38.99C77.8143 38.69 78.7243 38.24 79.6643 37.64L80.5343 38.99C79.4143 39.75 78.2943 40.32 77.1743 40.7C76.0543 41.08 74.9743 41.27 73.9343 41.27ZM85.6048 41V39.71L88.9348 39.17L88.3948 39.8V26.57L88.9648 26.99H83.8648L84.4048 26.48L83.8648 29.78H82.3648V25.16H96.8248V29.78H95.3248L94.7848 26.57L95.2948 26.99H90.2848L90.7948 26.57V39.8L90.3448 39.17L93.6448 39.71V41H85.6048ZM105.441 24.89C107.641 24.89 109.361 25.58 110.601 26.96C111.861 28.34 112.491 30.29 112.491 32.81C112.491 34.51 112.181 36 111.561 37.28C110.961 38.54 110.101 39.52 108.981 40.22C107.861 40.92 106.511 41.27 104.931 41.27C102.771 41.27 101.081 40.6 99.8611 39.26C98.6411 37.9 98.0311 35.95 98.0311 33.41C98.0311 31.65 98.3211 30.14 98.9011 28.88C99.5011 27.6 100.351 26.62 101.451 25.94C102.571 25.24 103.901 24.89 105.441 24.89ZM105.321 26.66C103.781 26.66 102.601 27.24 101.781 28.4C100.961 29.56 100.551 31.19 100.551 33.29C100.551 35.35 100.941 36.9 101.721 37.94C102.501 38.98 103.621 39.5 105.081 39.5C106.141 39.5 107.031 39.24 107.751 38.72C108.491 38.18 109.041 37.42 109.401 36.44C109.781 35.46 109.971 34.29 109.971 32.93C109.971 30.89 109.561 29.34 108.741 28.28C107.941 27.2 106.801 26.66 105.321 26.66Z" fill="black"/>
<rect x="0.5" y="0.5" width="159" height="68" rx="34" fill="white" fill-opacity="0.5" stroke="black"/>
<path d="M47.16 41.33C46.62 41.33 45.98 41.23 45.24 41.03L45.6 38.66C46.02 38.78 46.38 38.84 46.68 38.84C47.46 38.84 48.11 38.58 48.63 38.06C49.17 37.52 49.6 36.8 49.92 35.9C50.26 34.98 50.52 33.94 50.7 32.78C50.88 31.62 51.01 30.39 51.09 29.09C51.17 27.79 51.22 26.5 51.24 25.22C51.28 23.94 51.32 22.73 51.36 21.59L51.75 22.04L48.75 21.5V20.21L53.25 20.06H64.71V21.35L61.71 22.04L62.1 21.47V39.62L61.71 39.08L64.71 39.71V41H56.67V39.71L60.03 39.08L59.67 39.62V21.29L60.09 21.89L52.83 21.92L53.34 21.38C53.26 22.86 53.19 24.37 53.13 25.91C53.07 27.45 52.99 28.97 52.89 30.47C52.79 31.95 52.62 33.35 52.38 34.67C52.16 35.97 51.84 37.12 51.42 38.12C51 39.12 50.44 39.91 49.74 40.49C49.06 41.05 48.2 41.33 47.16 41.33ZM73.9343 41.27C72.5943 41.27 71.4043 40.97 70.3643 40.37C69.3443 39.75 68.5443 38.85 67.9643 37.67C67.3843 36.49 67.0943 35.05 67.0943 33.35C67.0943 31.61 67.3943 30.11 67.9943 28.85C68.5943 27.59 69.4443 26.62 70.5443 25.94C71.6443 25.24 72.9343 24.89 74.4143 24.89C75.8143 24.89 76.9643 25.19 77.8643 25.79C78.7843 26.37 79.4643 27.18 79.9043 28.22C80.3643 29.26 80.5943 30.45 80.5943 31.79C80.5943 32.01 80.5843 32.23 80.5643 32.45C80.5443 32.67 80.5143 32.94 80.4743 33.26H68.9243V31.55H78.3743L78.1043 31.73C78.1243 30.83 78.0143 30 77.7743 29.24C77.5343 28.48 77.1243 27.87 76.5443 27.41C75.9643 26.95 75.1943 26.72 74.2343 26.72C73.2143 26.72 72.3543 26.99 71.6543 27.53C70.9543 28.07 70.4343 28.81 70.0943 29.75C69.7543 30.69 69.5843 31.78 69.5843 33.02C69.5843 34.34 69.7743 35.48 70.1543 36.44C70.5343 37.38 71.0843 38.11 71.8043 38.63C72.5443 39.15 73.4443 39.41 74.5043 39.41C75.2443 39.41 76.0543 39.27 76.9343 38.99C77.8143 38.69 78.7243 38.24 79.6643 37.64L80.5343 38.99C79.4143 39.75 78.2943 40.32 77.1743 40.7C76.0543 41.08 74.9743 41.27 73.9343 41.27ZM85.6048 41V39.71L88.9348 39.17L88.3948 39.8V26.57L88.9648 26.99H83.8648L84.4048 26.48L83.8648 29.78H82.3648V25.16H96.8248V29.78H95.3248L94.7848 26.57L95.2948 26.99H90.2848L90.7948 26.57V39.8L90.3448 39.17L93.6448 39.71V41H85.6048ZM105.441 24.89C107.641 24.89 109.361 25.58 110.601 26.96C111.861 28.34 112.491 30.29 112.491 32.81C112.491 34.51 112.181 36 111.561 37.28C110.961 38.54 110.101 39.52 108.981 40.22C107.861 40.92 106.511 41.27 104.931 41.27C102.771 41.27 101.081 40.6 99.8611 39.26C98.6411 37.9 98.0311 35.95 98.0311 33.41C98.0311 31.65 98.3211 30.14 98.9011 28.88C99.5011 27.6 100.351 26.62 101.451 25.94C102.571 25.24 103.901 24.89 105.441 24.89ZM105.321 26.66C103.781 26.66 102.601 27.24 101.781 28.4C100.961 29.56 100.551 31.19 100.551 33.29C100.551 35.35 100.941 36.9 101.721 37.94C102.501 38.98 103.621 39.5 105.081 39.5C106.141 39.5 107.031 39.24 107.751 38.72C108.491 38.18 109.041 37.42 109.401 36.44C109.781 35.46 109.971 34.29 109.971 32.93C109.971 30.89 109.561 29.34 108.741 28.28C107.941 27.2 106.801 26.66 105.321 26.66Z" fill="black"/>
</svg>
