<svg width="160" height="69" viewBox="0 0 160 69" fill="none" xmlns="http://www.w3.org/2000/svg">
<rect x="1" y="1" width="158" height="67" rx="33.5" fill="white" fill-opacity="0.8" stroke="black" stroke-width="2"/>
<path d="M19.9248 51.2441L20.1006 44.0518C20.6865 43.915 21.1699 43.7734 21.5508 43.627C21.9414 43.4805 22.293 43.2803 22.6055 43.0264C22.918 42.7725 23.167 42.5088 23.3525 42.2354C23.5381 41.9521 23.7041 41.5615 23.8506 41.0635C24.0068 40.5654 24.1289 40.0479 24.2168 39.5107C24.3047 38.9639 24.4023 38.2559 24.5098 37.3867C24.9395 33.8418 25.2129 30.5117 25.3301 27.3965L22.0195 26.7959V24.9941H39.3047V26.7959L36.7559 27.3965V43.5977L40.0518 44.1396L40.1982 51.2441H38.4111L36.9023 46H23.2207L21.7266 51.2441H19.9248ZM24.9639 43.5977H33.6064V27.3965H27.7178C27.5713 30.541 27.3027 33.8906 26.9121 37.4453C26.7363 39.0176 26.5068 40.2773 26.2236 41.2246C25.9404 42.1621 25.5205 42.9531 24.9639 43.5977ZM42.6152 38.207C42.6152 36.6152 42.9229 35.1846 43.5381 33.915C44.1533 32.6357 45.0225 31.6299 46.1455 30.8975C47.2686 30.165 48.543 29.7988 49.9688 29.7988C54.168 29.7988 56.2676 32.1475 56.2676 36.8447C56.2676 37.0693 56.2529 37.3135 56.2236 37.5771C56.2041 37.8408 56.1797 38.0605 56.1504 38.2363L56.1211 38.5H45.7646C45.7646 40.1406 46.165 41.4541 46.9658 42.4404C47.7666 43.417 48.8164 43.9053 50.1152 43.9053C51.0039 43.9053 51.8682 43.7686 52.708 43.4951C53.5479 43.2119 54.168 42.9336 54.5684 42.6602L55.1543 42.25L56.209 43.8027C56.1309 43.8711 56.0234 43.9639 55.8867 44.0811C55.75 44.1885 55.4521 44.3838 54.9932 44.667C54.5439 44.9502 54.085 45.2041 53.6162 45.4287C53.1475 45.6436 52.5615 45.8389 51.8584 46.0146C51.165 46.2002 50.4814 46.293 49.8076 46.293C47.4541 46.293 45.667 45.5801 44.4463 44.1543C43.2256 42.7188 42.6152 40.7363 42.6152 38.207ZM45.8818 36.2441H53.0889C53.0889 35.0137 52.8252 34.0225 52.2979 33.2705C51.7705 32.5186 50.9404 32.1426 49.8076 32.1426C48.6553 32.1426 47.7324 32.5283 47.0391 33.2998C46.3555 34.0713 45.9697 35.0527 45.8818 36.2441ZM57.9082 30.1064H73.2158L73.0693 35.6436H70.96L70.5205 32.4941H67.0635V43.5977L70.0664 44.3447V46H61.0723V44.3447L64.0605 43.5977V32.4941H60.6182L60.1641 35.6436H58.0693L57.9082 30.1064ZM74.7246 38.0459C74.7246 35.6143 75.4277 33.6318 76.834 32.0986C78.25 30.5654 80.1445 29.7988 82.5176 29.7988C83.3184 29.7988 84.1436 29.9014 84.9932 30.1064C85.8428 30.3018 86.4922 30.502 86.9414 30.707L87.6299 31L87.4688 35.043H85.5205L85.0664 32.4941C84.2656 32.2988 83.3672 32.2012 82.3711 32.2012C80.916 32.2012 79.8027 32.665 79.0312 33.5928C78.2598 34.5205 77.874 35.9072 77.874 37.7529C77.874 39.7451 78.2842 41.2686 79.1045 42.3232C79.9248 43.3779 81.0625 43.9053 82.5176 43.9053C83.0547 43.9053 83.5771 43.8467 84.085 43.7295C84.6025 43.6025 85.0371 43.4512 85.3887 43.2754C85.75 43.0996 86.0674 42.9238 86.3408 42.748C86.624 42.5625 86.834 42.4062 86.9707 42.2793L87.1758 42.1035L88.2305 43.9053C88.1523 43.9736 88.0449 44.0615 87.9082 44.1689C87.7812 44.2764 87.5029 44.4668 87.0732 44.7402C86.6436 45.0137 86.2041 45.2578 85.7549 45.4727C85.3154 45.6777 84.7686 45.8633 84.1143 46.0293C83.4697 46.2051 82.8398 46.293 82.2246 46.293C79.7832 46.293 77.9229 45.5654 76.6436 44.1104C75.3643 42.6553 74.7246 40.6338 74.7246 38.0459ZM89.1094 30.1064H104.417L104.271 35.6436H102.161L101.722 32.4941H98.2646V43.5977L101.268 44.3447V46H92.2734V44.3447L95.2617 43.5977V32.4941H91.8193L91.3652 35.6436H89.2705L89.1094 30.1064ZM105.926 46V44.3447L108.475 43.6855V32.4062L105.926 31.8936V30.2529L111.478 30.1064H115.521C116.897 30.1064 118.04 30.4629 118.948 31.1758C119.866 31.8887 120.325 32.8311 120.325 34.0029C120.325 35.0771 119.993 35.8975 119.329 36.4639C118.675 37.0303 117.786 37.3672 116.663 37.4746C117.864 37.6016 118.875 38.0117 119.695 38.7051C120.516 39.3887 120.926 40.2725 120.926 41.3564C120.926 42.958 120.345 44.1348 119.183 44.8867C118.021 45.6289 116.321 46 114.085 46H105.926ZM111.478 43.8027H114.231C115.394 43.8027 116.272 43.6221 116.868 43.2607C117.474 42.8896 117.776 42.3037 117.776 41.5029C117.776 40.458 117.498 39.7061 116.941 39.2471C116.395 38.7881 115.501 38.5586 114.261 38.5586H111.478V43.8027ZM111.478 36.6104H114.422C115.379 36.6104 116.102 36.4492 116.59 36.127C117.078 35.8047 117.322 35.248 117.322 34.457C117.322 33.7832 117.117 33.2559 116.707 32.875C116.297 32.4844 115.721 32.2891 114.979 32.2891H111.478V36.6104ZM123.768 38.207C123.768 35.6777 124.476 33.6465 125.892 32.1133C127.308 30.5703 129.148 29.7988 131.414 29.7988C133.631 29.7988 135.359 30.5166 136.6 31.9521C137.84 33.3877 138.46 35.3213 138.46 37.7529C138.46 40.3018 137.771 42.3623 136.395 43.9346C135.018 45.5068 133.206 46.293 130.96 46.293C128.675 46.293 126.902 45.6094 125.643 44.2422C124.393 42.875 123.768 40.8633 123.768 38.207ZM126.917 38.0459C126.917 41.9521 128.318 43.9053 131.121 43.9053C132.586 43.9053 133.65 43.4072 134.314 42.4111C134.979 41.4053 135.311 39.9014 135.311 37.8994C135.311 34.1006 133.963 32.2012 131.268 32.2012C129.783 32.2012 128.685 32.6846 127.972 33.6514C127.269 34.6182 126.917 36.083 126.917 38.0459Z" fill="black"/>
</svg>
