<svg width="160" height="69" viewBox="0 0 160 69" fill="none" xmlns="http://www.w3.org/2000/svg">
<rect x="1" y="1" width="158" height="67" rx="33.5" fill="white" fill-opacity="0.8" stroke="black" stroke-width="2"/>
<path d="M44.3877 45.7656L44.9004 42.6162C45.2031 42.6748 45.6133 42.7041 46.1309 42.7041C47.127 42.7041 47.8936 42.3232 48.4307 41.5615C48.9775 40.79 49.3486 39.5205 49.5439 37.7529C49.8369 35.1748 50.0664 31.7227 50.2324 27.3965L46.4824 26.7959V24.9941H64.1924V26.7959L61.6436 27.3965V43.5977L64.1924 44.1982V46H55.4912V44.1982L58.4941 43.5977V27.3965H52.6348C52.4199 32.2402 52.1904 35.7803 51.9463 38.0166C51.8584 38.8174 51.7705 39.5059 51.6826 40.082C51.6045 40.6582 51.4971 41.249 51.3604 41.8545C51.2236 42.4502 51.0674 42.9531 50.8916 43.3633C50.7256 43.7734 50.5156 44.1689 50.2617 44.5498C50.0078 44.9209 49.7197 45.2188 49.3975 45.4434C49.0752 45.6582 48.6895 45.8291 48.2402 45.9561C47.8008 46.083 47.3076 46.1465 46.7607 46.1465C46.1064 46.1465 45.3154 46.0195 44.3877 45.7656ZM66.5947 38.207C66.5947 36.6152 66.9023 35.1846 67.5176 33.915C68.1328 32.6357 69.002 31.6299 70.125 30.8975C71.248 30.165 72.5225 29.7988 73.9482 29.7988C78.1475 29.7988 80.2471 32.1475 80.2471 36.8447C80.2471 37.0693 80.2324 37.3135 80.2031 37.5771C80.1836 37.8408 80.1592 38.0605 80.1299 38.2363L80.1006 38.5H69.7441C69.7441 40.1406 70.1445 41.4541 70.9453 42.4404C71.7461 43.417 72.7959 43.9053 74.0947 43.9053C74.9834 43.9053 75.8477 43.7686 76.6875 43.4951C77.5273 43.2119 78.1475 42.9336 78.5479 42.6602L79.1338 42.25L80.1885 43.8027C80.1104 43.8711 80.0029 43.9639 79.8662 44.0811C79.7295 44.1885 79.4316 44.3838 78.9727 44.667C78.5234 44.9502 78.0645 45.2041 77.5957 45.4287C77.127 45.6436 76.541 45.8389 75.8379 46.0146C75.1445 46.2002 74.4609 46.293 73.7871 46.293C71.4336 46.293 69.6465 45.5801 68.4258 44.1543C67.2051 42.7188 66.5947 40.7363 66.5947 38.207ZM69.8613 36.2441H77.0684C77.0684 35.0137 76.8047 34.0225 76.2773 33.2705C75.75 32.5186 74.9199 32.1426 73.7871 32.1426C72.6348 32.1426 71.7119 32.5283 71.0186 33.2998C70.335 34.0713 69.9492 35.0527 69.8613 36.2441ZM81.8877 30.1064H97.1953L97.0488 35.6436H94.9395L94.5 32.4941H91.043V43.5977L94.0459 44.3447V46H85.0518V44.3447L88.04 43.5977V32.4941H84.5977L84.1436 35.6436H82.0488L81.8877 30.1064ZM98.7041 38.207C98.7041 35.6777 99.4121 33.6465 100.828 32.1133C102.244 30.5703 104.085 29.7988 106.351 29.7988C108.567 29.7988 110.296 30.5166 111.536 31.9521C112.776 33.3877 113.396 35.3213 113.396 37.7529C113.396 40.3018 112.708 42.3623 111.331 43.9346C109.954 45.5068 108.143 46.293 105.896 46.293C103.611 46.293 101.839 45.6094 100.579 44.2422C99.3291 42.875 98.7041 40.8633 98.7041 38.207ZM101.854 38.0459C101.854 41.9521 103.255 43.9053 106.058 43.9053C107.522 43.9053 108.587 43.4072 109.251 42.4111C109.915 41.4053 110.247 39.9014 110.247 37.8994C110.247 34.1006 108.899 32.2012 106.204 32.2012C104.72 32.2012 103.621 32.6846 102.908 33.6514C102.205 34.6182 101.854 36.083 101.854 38.0459Z" fill="black"/>
</svg>
