<svg width="311" height="9" viewBox="0 0 311 9" fill="none" xmlns="http://www.w3.org/2000/svg">
<mask id="path-1-inside-1_1_25" fill="white">
<path fill-rule="evenodd" clip-rule="evenodd" d="M244 4H228C227.998 4.33653 227.984 4.67002 227.957 5H244.043C244.016 4.67002 244.002 4.33653 244 4ZM303.957 5H308.793L306.464 7.32843C306.269 7.52369 306.269 7.84028 306.464 8.03554C306.66 8.2308 306.976 8.2308 307.172 8.03554L310.354 4.85356C310.549 4.65829 310.549 4.34171 310.354 4.14645L307.172 0.96447C306.976 0.769208 306.66 0.769208 306.464 0.96447C306.269 1.15973 306.269 1.47631 306.464 1.67158L308.793 4H304C303.998 4.33653 303.984 4.67002 303.957 5ZM152 4H168C168.002 4.33653 168.016 4.67002 168.043 5H151.957C151.984 4.67002 151.998 4.33653 152 4ZM92.0001 4H77.984C77.9673 4.33689 77.9377 4.67038 77.8958 5H92.043C92.0162 4.67002 92.0017 4.33653 92.0001 4ZM0 4H18.016C18.0327 4.33689 18.0623 4.67038 18.1042 5H0V4Z"/>
</mask>
<path fill-rule="evenodd" clip-rule="evenodd" d="M244 4H228C227.998 4.33653 227.984 4.67002 227.957 5H244.043C244.016 4.67002 244.002 4.33653 244 4ZM303.957 5H308.793L306.464 7.32843C306.269 7.52369 306.269 7.84028 306.464 8.03554C306.66 8.2308 306.976 8.2308 307.172 8.03554L310.354 4.85356C310.549 4.65829 310.549 4.34171 310.354 4.14645L307.172 0.96447C306.976 0.769208 306.66 0.769208 306.464 0.96447C306.269 1.15973 306.269 1.47631 306.464 1.67158L308.793 4H304C303.998 4.33653 303.984 4.67002 303.957 5ZM152 4H168C168.002 4.33653 168.016 4.67002 168.043 5H151.957C151.984 4.67002 151.998 4.33653 152 4ZM92.0001 4H77.984C77.9673 4.33689 77.9377 4.67038 77.8958 5H92.043C92.0162 4.67002 92.0017 4.33653 92.0001 4ZM0 4H18.016C18.0327 4.33689 18.0623 4.67038 18.1042 5H0V4Z" fill="white" fill-opacity="0.8"/>
<path d="M244 4L246 3.99057L245.991 2H244V4ZM228 4V2H226.009L226 3.99057L228 4ZM227.957 5L225.964 4.83796L225.788 7H227.957V5ZM244.043 5V7H246.212L246.036 4.83796L244.043 5ZM303.957 5L301.964 4.83796L301.788 7H303.957V5ZM308.793 5L310.207 6.41422L313.621 3H308.793V5ZM306.464 7.32843L307.879 8.74271L307.879 8.74265L306.464 7.32843ZM306.464 8.03554L307.879 6.62137L307.879 6.62126L306.464 8.03554ZM307.172 8.03554L305.757 6.62133L305.757 6.62137L307.172 8.03554ZM310.354 4.85356L308.939 3.43928L308.939 3.43935L310.354 4.85356ZM310.354 4.14645L308.939 5.56066L308.939 5.56073L310.354 4.14645ZM307.172 0.96447L305.757 2.37865L305.757 2.37868L307.172 0.96447ZM306.464 0.96447L307.879 2.37876L307.879 2.37865L306.464 0.96447ZM306.464 1.67158L307.879 0.257362L307.879 0.257291L306.464 1.67158ZM308.793 4V6H313.621L310.207 2.58579L308.793 4ZM304 4V2H302.009L302 3.99057L304 4ZM168 4L170 3.99057L169.991 2H168V4ZM152 4V2H150.009L150 3.99057L152 4ZM168.043 5V7H170.212L170.036 4.83796L168.043 5ZM151.957 5L149.964 4.83796L149.788 7H151.957V5ZM77.984 4V2H76.0805L75.9864 3.90116L77.984 4ZM92.0001 4L94.0001 3.99053L93.9907 2H92.0001V4ZM77.8958 5L75.9118 4.74744L75.625 7H77.8958V5ZM92.043 5V7H94.2122L94.0364 4.83796L92.043 5ZM18.016 4L20.0136 3.90116L19.9195 2H18.016V4ZM0 4V2H-2V4H0ZM18.1042 5V7H20.3749L20.0882 4.74746L18.1042 5ZM0 5H-2V7H0V5ZM244 2H228V6H244V2ZM226 3.99057C225.999 4.27612 225.986 4.5587 225.964 4.83796L229.95 5.16205C229.981 4.78134 229.998 4.39694 230 4.00944L226 3.99057ZM227.957 7H244.043V3H227.957V7ZM246.036 4.83796C246.014 4.5587 246.001 4.27612 246 3.99057L242 4.00944C242.002 4.39694 242.019 4.78134 242.05 5.16205L246.036 4.83796ZM303.957 7H308.793V3H303.957V7ZM307.379 3.58579L305.05 5.91422L307.879 8.74265L310.207 6.41422L307.379 3.58579ZM305.05 5.91415C304.074 6.89048 304.074 8.47349 305.05 9.44982L307.879 6.62126C308.464 7.20706 308.464 8.15691 307.879 8.74271L305.05 5.91415ZM305.05 9.44971C306.027 10.4261 307.61 10.4261 308.586 9.44971L305.757 6.62137C306.343 6.03552 307.293 6.03552 307.879 6.62137L305.05 9.44971ZM308.586 9.44975L311.768 6.26777L308.939 3.43935L305.757 6.62133L308.586 9.44975ZM311.768 6.26784C312.744 5.29151 312.744 3.70849 311.768 2.73217L308.939 5.56073C308.354 4.97493 308.354 4.02508 308.939 3.43928L311.768 6.26784ZM311.768 2.73224L308.586 -0.449743L305.757 2.37868L308.939 5.56066L311.768 2.73224ZM308.586 -0.449705C307.61 -1.42607 306.027 -1.42607 305.05 -0.449705L307.879 2.37865C307.293 2.96448 306.343 2.96448 305.757 2.37865L308.586 -0.449705ZM305.05 -0.449816C304.074 0.526511 304.074 2.10954 305.05 3.08586L307.879 0.257291C308.464 0.843094 308.464 1.79295 307.879 2.37876L305.05 -0.449816ZM305.05 3.08579L307.379 5.41422L310.207 2.58579L307.879 0.257362L305.05 3.08579ZM308.793 2H304V6H308.793V2ZM302 3.99057C301.999 4.27612 301.986 4.5587 301.964 4.83796L305.95 5.16205C305.981 4.78134 305.998 4.39694 306 4.00944L302 3.99057ZM168 2H152V6H168V2ZM170.036 4.83796C170.014 4.5587 170.001 4.27612 170 3.99057L166 4.00944C166.002 4.39694 166.019 4.78134 166.05 5.16205L170.036 4.83796ZM151.957 7H168.043V3H151.957V7ZM150 3.99057C149.999 4.27612 149.986 4.5587 149.964 4.83796L153.95 5.16205C153.981 4.78134 153.998 4.39694 154 4.00944L150 3.99057ZM77.984 6H92.0001V2H77.984V6ZM79.8798 5.25257C79.9282 4.87197 79.9623 4.4872 79.9815 4.09885L75.9864 3.90116C75.9723 4.18658 75.9473 4.46879 75.9118 4.74744L79.8798 5.25257ZM92.043 3H77.8958V7H92.043V3ZM90.0002 4.00948C90.002 4.39695 90.0186 4.78134 90.0496 5.16205L94.0364 4.83796C94.0137 4.5587 94.0015 4.2761 94.0001 3.99053L90.0002 4.00948ZM18.016 2H0V6H18.016V2ZM20.0882 4.74746C20.0527 4.46878 20.0277 4.18656 20.0136 3.90116L16.0185 4.09885C16.0377 4.48722 16.0718 4.87199 16.1202 5.25255L20.0882 4.74746ZM0 7H18.1042V3H0V7ZM-2 4V5H2V4H-2Z" fill="black" mask="url(#path-1-inside-1_1_25)"/>
</svg>
