<svg width="115" height="27" viewBox="0 0 115 27" fill="none" xmlns="http://www.w3.org/2000/svg">
<path d="M3.51 19.83C4.09 19.39 4.6 18.85 5.04 18.21C5.48 17.57 5.85 16.78 6.15 15.84C6.47 14.88 6.72 13.74 6.9 12.42C7.08 11.08 7.21 9.5 7.29 7.68C7.39 5.86 7.44 3.76 7.44 1.38L7.05 1.92L14.34 1.89L13.89 1.29V19.83L14.4 19.17H3.45L3.51 19.83ZM1.71 19.56L2.55 19.17L0.27 19.26L0.21 26.31H1.71L2.7 20.76L2.43 21H17.37L17.07 20.76L18.03 26.31H19.53V19.26L15.9 19.17L16.35 19.83V1.47L15.93 2.04L18.93 1.35V0.0599996H7.41L2.88 0.209999V1.5L5.97 2.04L5.49 1.59C5.47 3.91 5.42 5.94 5.34 7.68C5.26 9.4 5.13 10.89 4.95 12.15C4.79 13.41 4.57 14.49 4.29 15.39C4.01 16.29 3.66 17.08 3.24 17.76C2.82 18.42 2.31 19.02 1.71 19.56ZM28.5241 21.27C27.1841 21.27 25.9941 20.97 24.9541 20.37C23.9341 19.75 23.1341 18.85 22.5541 17.67C21.9741 16.49 21.6841 15.05 21.6841 13.35C21.6841 11.61 21.9841 10.11 22.5841 8.85C23.1841 7.59 24.0341 6.62 25.1341 5.94C26.2341 5.24 27.5241 4.89 29.0041 4.89C30.4041 4.89 31.5541 5.19 32.4541 5.79C33.3741 6.37 34.0541 7.18 34.4941 8.22C34.9541 9.26 35.1841 10.45 35.1841 11.79C35.1841 12.01 35.1741 12.23 35.1541 12.45C35.1341 12.67 35.1041 12.94 35.0641 13.26H23.5141V11.55H32.9641L32.6941 11.73C32.7141 10.83 32.6041 10 32.3641 9.24C32.1241 8.48 31.7141 7.87 31.1341 7.41C30.5541 6.95 29.7841 6.72 28.8241 6.72C27.8041 6.72 26.9441 6.99 26.2441 7.53C25.5441 8.07 25.0241 8.81 24.6841 9.75C24.3441 10.69 24.1741 11.78 24.1741 13.02C24.1741 14.34 24.3641 15.48 24.7441 16.44C25.1241 17.38 25.6741 18.11 26.3941 18.63C27.1341 19.15 28.0341 19.41 29.0941 19.41C29.8341 19.41 30.6441 19.27 31.5241 18.99C32.4041 18.69 33.3141 18.24 34.2541 17.64L35.1241 18.99C34.0041 19.75 32.8841 20.32 31.7641 20.7C30.6441 21.08 29.5641 21.27 28.5241 21.27ZM40.1946 21V19.71L43.5246 19.17L42.9846 19.8V6.57L43.5546 6.99H38.4546L38.9946 6.48L38.4546 9.78H36.9546V5.16H51.4146V9.78H49.9146L49.3746 6.57L49.8846 6.99H44.8746L45.3846 6.57V19.8L44.9346 19.17L48.2346 19.71V21H40.1946ZM59.3709 21.27C58.0909 21.27 56.9309 20.96 55.8909 20.34C54.8709 19.7 54.0609 18.78 53.4609 17.58C52.8809 16.38 52.5909 14.94 52.5909 13.26C52.5909 11.8 52.7909 10.55 53.1909 9.51C53.6109 8.45 54.1709 7.58 54.8709 6.9C55.5709 6.22 56.3709 5.72 57.2709 5.4C58.1909 5.06 59.1409 4.89 60.1209 4.89C60.9209 4.89 61.7709 5 62.6709 5.22C63.5909 5.44 64.3909 5.74 65.0709 6.12L64.9509 9.87H63.3309L62.9409 7.05L63.1809 7.32C62.6809 7.08 62.1509 6.91 61.5909 6.81C61.0309 6.71 60.5309 6.66 60.0909 6.66C59.0509 6.66 58.1509 6.93 57.3909 7.47C56.6509 7.99 56.0809 8.73 55.6809 9.69C55.2809 10.65 55.0809 11.79 55.0809 13.11C55.0809 14.47 55.2909 15.62 55.7109 16.56C56.1309 17.5 56.7009 18.21 57.4209 18.69C58.1609 19.17 58.9909 19.41 59.9109 19.41C60.6309 19.41 61.3909 19.26 62.1909 18.96C62.9909 18.66 63.8209 18.21 64.6809 17.61L65.5209 18.93C64.4809 19.73 63.4409 20.32 62.4009 20.7C61.3609 21.08 60.3509 21.27 59.3709 21.27ZM70.0188 21V19.71L73.3488 19.17L72.8088 19.8V6.57L73.3788 6.99H68.2788L68.8188 6.48L68.2788 9.78H66.7788V5.16H81.2388V9.78H79.7388L79.1988 6.57L79.7088 6.99H74.6988L75.2088 6.57V19.8L74.7588 19.17L78.0588 19.71V21H70.0188ZM87.2374 5.16H90.2374C91.5174 5.16 92.5974 5.29 93.4774 5.55C94.3574 5.81 95.0174 6.22 95.4574 6.78C95.9174 7.32 96.1474 8.04 96.1474 8.94C96.1474 9.76 95.9474 10.44 95.5474 10.98C95.1674 11.52 94.5974 11.94 93.8374 12.24C93.0774 12.52 92.1174 12.71 90.9574 12.81L91.0774 12.57C91.9774 12.57 92.7774 12.65 93.4774 12.81C94.1774 12.97 94.7774 13.22 95.2774 13.56C95.7974 13.9 96.1874 14.33 96.4474 14.85C96.7274 15.35 96.8674 15.97 96.8674 16.71C96.8674 18.15 96.3074 19.23 95.1874 19.95C94.0874 20.65 92.3574 21 89.9974 21H82.4974V19.71L85.1074 19.14L84.8374 19.47V6.81L85.0774 7.08L82.4974 6.54V5.25L87.2374 5.16ZM89.7574 6.81H86.8174L87.2374 6.39V12.42L86.8174 12.06H89.0074C90.6874 12.06 91.8974 11.83 92.6374 11.37C93.3774 10.91 93.7474 10.22 93.7474 9.3C93.7474 8.4 93.4174 7.76 92.7574 7.38C92.0974 7 91.0974 6.81 89.7574 6.81ZM89.7274 19.32C91.3474 19.32 92.5174 19.1 93.2374 18.66C93.9774 18.22 94.3474 17.49 94.3474 16.47C94.3474 15.49 94.0174 14.74 93.3574 14.22C92.7174 13.7 91.7074 13.44 90.3274 13.44H86.8174L87.2374 13.05V19.71L86.8174 19.32H89.7274ZM107.14 4.89C109.34 4.89 111.06 5.58 112.3 6.96C113.56 8.34 114.19 10.29 114.19 12.81C114.19 14.51 113.88 16 113.26 17.28C112.66 18.54 111.8 19.52 110.68 20.22C109.56 20.92 108.21 21.27 106.63 21.27C104.47 21.27 102.78 20.6 101.56 19.26C100.34 17.9 99.7303 15.95 99.7303 13.41C99.7303 11.65 100.02 10.14 100.6 8.88C101.2 7.6 102.05 6.62 103.15 5.94C104.27 5.24 105.6 4.89 107.14 4.89ZM107.02 6.66C105.48 6.66 104.3 7.24 103.48 8.4C102.66 9.56 102.25 11.19 102.25 13.29C102.25 15.35 102.64 16.9 103.42 17.94C104.2 18.98 105.32 19.5 106.78 19.5C107.84 19.5 108.73 19.24 109.45 18.72C110.19 18.18 110.74 17.42 111.1 16.44C111.48 15.46 111.67 14.29 111.67 12.93C111.67 10.89 111.26 9.34 110.44 8.28C109.64 7.2 108.5 6.66 107.02 6.66Z" fill="black"/>
</svg>
